  0
SECTION
  2
HEADER
  9
$ACADVER
  1
AC1024
  9
$ACADMAINTVER
 70
     6
  9
$DWGCODEPAGE
  3
ANSI_949
  9
$INSBASE
 10
0.0
 20
0.0
 30
0.0
  9
$EXTMIN
 10
1.000000000000000E+20
 20
1.000000000000000E+20
 30
1.000000000000000E+20
  9
$EXTMAX
 10
-1.000000000000000E+20
 20
-1.000000000000000E+20
 30
-1.000000000000000E+20
  9
$LIMMIN
 10
0.0
 20
0.0
  9
$LIMMAX
 10
12.0
 20
9.0
  9
$ORTHOMODE
 70
     0
  9
$REGENMODE
 70
     1
  9
$FILLMODE
 70
     1
  9
$QTEXTMODE
 70
     0
  9
$MIRRTEXT
 70
     1
  9
$LTSCALE
 40
1.0
  9
$ATTMODE
 70
     1
  9
$TEXTSIZE
 40
0.2
  9
$TRACEWID
 40
0.05
  9
$TEXTSTYLE
  7
Standard
  9
$CLAYER
  8
0
  9
$CELTYPE
  6
ByLayer
  9
$CECOLOR
 62
   256
  9
$CELTSCALE
 40
1.0
  9
$DISPSILH
 70
     0
  9
$DIMSCALE
 40
1.0
  9
$DIMASZ
 40
0.18
  9
$DIMEXO
 40
0.0625
  9
$DIMDLI
 40
0.38
  9
$DIMRND
 40
0.0
  9
$DIMDLE
 40
0.0
  9
$DIMEXE
 40
0.18
  9
$DIMTP
 40
0.0
  9
$DIMTM
 40
0.0
  9
$DIMTXT
 40
0.18
  9
$DIMCEN
 40
0.09
  9
$DIMTSZ
 40
0.0
  9
$DIMTOL
 70
     0
  9
$DIMLIM
 70
     0
  9
$DIMTIH
 70
     1
  9
$DIMTOH
 70
     1
  9
$DIMSE1
 70
     0
  9
$DIMSE2
 70
     0
  9
$DIMTAD
 70
     0
  9
$DIMZIN
 70
     0
  9
$DIMBLK
  1

  9
$DIMASO
 70
     1
  9
$DIMSHO
 70
     1
  9
$DIMPOST
  1

  9
$DIMAPOST
  1

  9
$DIMALT
 70
     0
  9
$DIMALTD
 70
     2
  9
$DIMALTF
 40
25.4
  9
$DIMLFAC
 40
1.0
  9
$DIMTOFL
 70
     0
  9
$DIMTVP
 40
0.0
  9
$DIMTIX
 70
     0
  9
$DIMSOXD
 70
     0
  9
$DIMSAH
 70
     0
  9
$DIMBLK1
  1

  9
$DIMBLK2
  1

  9
$DIMSTYLE
  2
Standard
  9
$DIMCLRD
 70
     0
  9
$DIMCLRE
 70
     0
  9
$DIMCLRT
 70
     0
  9
$DIMTFAC
 40
1.0
  9
$DIMGAP
 40
0.09
  9
$DIMJUST
 70
     0
  9
$DIMSD1
 70
     0
  9
$DIMSD2
 70
     0
  9
$DIMTOLJ
 70
     1
  9
$DIMTZIN
 70
     0
  9
$DIMALTZ
 70
     0
  9
$DIMALTTZ
 70
     0
  9
$DIMUPT
 70
     0
  9
$DIMDEC
 70
     4
  9
$DIMTDEC
 70
     4
  9
$DIMALTU
 70
     2
  9
$DIMALTTD
 70
     2
  9
$DIMTXSTY
  7
Standard
  9
$DIMAUNIT
 70
     0
  9
$DIMADEC
 70
     0
  9
$DIMALTRND
 40
0.0
  9
$DIMAZIN
 70
     0
  9
$DIMDSEP
 70
    46
  9
$DIMATFIT
 70
     3
  9
$DIMFRAC
 70
     0
  9
$DIMLDRBLK
  1

  9
$DIMLUNIT
 70
     2
  9
$DIMLWD
 70
    -2
  9
$DIMLWE
 70
    -2
  9
$DIMTMOVE
 70
     0
  9
$DIMFXL
 40
1.0
  9
$DIMFXLON
 70
     0
  9
$DIMJOGANG
 40
0.7853981633974483
  9
$DIMTFILL
 70
     0
  9
$DIMTFILLCLR
 70
     0
  9
$DIMARCSYM
 70
     0
  9
$DIMLTYPE
  6

  9
$DIMLTEX1
  6

  9
$DIMLTEX2
  6

  9
$DIMTXTDIRECTION
 70
     0
  9
$LUNITS
 70
     2
  9
$LUPREC
 70
     4
  9
$SKETCHINC
 40
0.1
  9
$FILLETRAD
 40
0.5
  9
$AUNITS
 70
     0
  9
$AUPREC
 70
     0
  9
$MENU
  1
.
  9
$ELEVATION
 40
0.0
  9
$PELEVATION
 40
0.0
  9
$THICKNESS
 40
0.0
  9
$LIMCHECK
 70
     0
  9
$CHAMFERA
 40
0.5
  9
$CHAMFERB
 40
0.5
  9
$CHAMFERC
 40
1.0
  9
$CHAMFERD
 40
0.0
  9
$SKPOLY
 70
     0
  9
$TDCREATE
 40
2459882.106394386
  9
$TDUCREATE
 40
2459881.731394386
  9
$TDUPDATE
 40
2459882.106394734
  9
$TDUUPDATE
 40
2459881.731394734
  9
$TDINDWG
 40
0.0000000116
  9
$TDUSRTIMER
 40
0.0000000116
  9
$USRTIMER
 70
     1
  9
$ANGBASE
 50
0.0
  9
$ANGDIR
 70
     0
  9
$PDMODE
 70
     0
  9
$PDSIZE
 40
0.0
  9
$PLINEWID
 40
0.0
  9
$SPLFRAME
 70
     0
  9
$SPLINETYPE
 70
     6
  9
$SPLINESEGS
 70
     8
  9
$HANDSEED
  5
46
  9
$SURFTAB1
 70
     6
  9
$SURFTAB2
 70
     6
  9
$SURFTYPE
 70
     6
  9
$SURFU
 70
     6
  9
$SURFV
 70
     6
  9
$UCSBASE
  2

  9
$UCSNAME
  2

  9
$UCSORG
 10
0.0
 20
0.0
 30
0.0
  9
$UCSXDIR
 10
1.0
 20
0.0
 30
0.0
  9
$UCSYDIR
 10
0.0
 20
1.0
 30
0.0
  9
$UCSORTHOREF
  2

  9
$UCSORTHOVIEW
 70
     0
  9
$UCSORGTOP
 10
0.0
 20
0.0
 30
0.0
  9
$UCSORGBOTTOM
 10
0.0
 20
0.0
 30
0.0
  9
$UCSORGLEFT
 10
0.0
 20
0.0
 30
0.0
  9
$UCSORGRIGHT
 10
0.0
 20
0.0
 30
0.0
  9
$UCSORGFRONT
 10
0.0
 20
0.0
 30
0.0
  9
$UCSORGBACK
 10
0.0
 20
0.0
 30
0.0
  9
$PUCSBASE
  2

  9
$PUCSNAME
  2

  9
$PUCSORG
 10
0.0
 20
0.0
 30
0.0
  9
$PUCSXDIR
 10
1.0
 20
0.0
 30
0.0
  9
$PUCSYDIR
 10
0.0
 20
1.0
 30
0.0
  9
$PUCSORTHOREF
  2

  9
$PUCSORTHOVIEW
 70
     0
  9
$PUCSORGTOP
 10
0.0
 20
0.0
 30
0.0
  9
$PUCSORGBOTTOM
 10
0.0
 20
0.0
 30
0.0
  9
$PUCSORGLEFT
 10
0.0
 20
0.0
 30
0.0
  9
$PUCSORGRIGHT
 10
0.0
 20
0.0
 30
0.0
  9
$PUCSORGFRONT
 10
0.0
 20
0.0
 30
0.0
  9
$PUCSORGBACK
 10
0.0
 20
0.0
 30
0.0
  9
$USERI1
 70
     0
  9
$USERI2
 70
     0
  9
$USERI3
 70
     0
  9
$USERI4
 70
     0
  9
$USERI5
 70
     0
  9
$USERR1
 40
0.0
  9
$USERR2
 40
0.0
  9
$USERR3
 40
0.0
  9
$USERR4
 40
0.0
  9
$USERR5
 40
0.0
  9
$WORLDVIEW
 70
     1
  9
$SHADEDGE
 70
     3
  9
$SHADEDIF
 70
    70
  9
$TILEMODE
 70
     1
  9
$MAXACTVP
 70
    64
  9
$PINSBASE
 10
0.0
 20
0.0
 30
0.0
  9
$PLIMCHECK
 70
     0
  9
$PEXTMIN
 10
1.000000000000000E+20
 20
1.000000000000000E+20
 30
1.000000000000000E+20
  9
$PEXTMAX
 10
-1.000000000000000E+20
 20
-1.000000000000000E+20
 30
-1.000000000000000E+20
  9
$PLIMMIN
 10
0.0
 20
0.0
  9
$PLIMMAX
 10
12.0
 20
9.0
  9
$UNITMODE
 70
     0
  9
$VISRETAIN
 70
     1
  9
$PLINEGEN
 70
     0
  9
$PSLTSCALE
 70
     1
  9
$TREEDEPTH
 70
  3020
  9
$CMLSTYLE
  2
Standard
  9
$CMLJUST
 70
     0
  9
$CMLSCALE
 40
1.0
  9
$PROXYGRAPHICS
 70
     1
  9
$MEASUREMENT
 70
     0
  9
$CELWEIGHT
370
    -1
  9
$ENDCAPS
280
     0
  9
$JOINSTYLE
280
     0
  9
$LWDISPLAY
290
     1
  9
$INSUNITS
 70
     1
  9
$HYPERLINKBASE
  1

  9
$STYLESHEET
  1

  9
$XEDIT
290
     1
  9
$CEPSNTYPE
380
     0
  9
$PSTYLEMODE
290
     1
  9
$FINGERPRINTGUID
  2
{C9E0E337-E400-4DCA-AD2B-FF59036567C8}
  9
$VERSIONGUID
  2
{FAEB1C32-E019-11D5-929B-00C0DF256EC4}
  9
$EXTNAMES
290
     1
  9
$PSVPSCALE
 40
0.0
  9
$OLESTARTUP
290
     0
  9
$SORTENTS
280
   127
  9
$INDEXCTL
280
     0
  9
$HIDETEXT
280
     1
  9
$XCLIPFRAME
280
     2
  9
$HALOGAP
280
     0
  9
$OBSCOLOR
 70
   257
  9
$OBSLTYPE
280
     0
  9
$INTERSECTIONDISPLAY
280
     0
  9
$INTERSECTIONCOLOR
 70
   257
  9
$DIMASSOC
280
     2
  9
$PROJECTNAME
  1

  9
$CAMERADISPLAY
290
     0
  9
$LENSLENGTH
 40
50.0
  9
$CAMERAHEIGHT
 40
0.0
  9
$STEPSPERSEC
 40
2.0
  9
$STEPSIZE
 40
6.0
  9
$3DDWFPREC
 40
2.0
  9
$PSOLWIDTH
 40
0.25
  9
$PSOLHEIGHT
 40
4.0
  9
$LOFTANG1
 40
1.570796326794897
  9
$LOFTANG2
 40
1.570796326794897
  9
$LOFTMAG1
 40
0.0
  9
$LOFTMAG2
 40
0.0
  9
$LOFTPARAM
 70
     7
  9
$LOFTNORMALS
280
     1
  9
$LATITUDE
 40
37.795
  9
$LONGITUDE
 40
-122.394
  9
$NORTHDIRECTION
 40
0.0
  9
$TIMEZONE
 70
 -8000
  9
$LIGHTGLYPHDISPLAY
280
     1
  9
$TILEMODELIGHTSYNCH
280
     1
  9
$CMATERIAL
347
3C
  9
$SOLIDHIST
280
     1
  9
$SHOWHIST
280
     1
  9
$DWFFRAME
280
     2
  9
$DGNFRAME
280
     2
  9
$REALWORLDSCALE
290
     1
  9
$INTERFERECOLOR
 62
   256
  9
$CSHADOW
280
     0
  9
$SHADOWPLANELOCATION
 40
0.0
  0
ENDSEC
  0
SECTION
  2
CLASSES
  0
CLASS
  1
ACDBDICTIONARYWDFLT
  2
AcDbDictionaryWithDefault
  3
ObjectDBX Classes
 90
        0
 91
        4
280
     0
281
     0
  0
CLASS
  1
VISUALSTYLE
  2
AcDbVisualStyle
  3
ObjectDBX Classes
 90
     4095
 91
        4
280
     0
281
     0
  0
CLASS
  1
MATERIAL
  2
AcDbMaterial
  3
ObjectDBX Classes
 90
     1153
 91
        4
280
     0
281
     0
  0
CLASS
  1
SUN
  2
AcDbSun
  3
SCENEOE
 90
     1024
 91
        4
280
     0
281
     0
  0
ENDSEC
  0
SECTION
  2
TABLES
  0
TABLE
  2
VPORT
  5
8
330
0
100
AcDbSymbolTable
 70
     1
  0
VPORT
  5
29
330
8
100
AcDbSymbolTableRecord
100
AcDbViewportTableRecord
  2
*Active
 70
     0
 10
0.0
 20
0.0
 11
1.0
 21
1.0
 12
0.0
 22
0.0
 13
0.0
 23
0.0
 14
0.5
 24
0.5
 15
0.5
 25
0.5
 16
0.0
 26
0.0
 36
1.0
 17
1920.0
 27
-1080.0
 37
0.0
 40
2160.0
 41
1.777777777777778
 42
50.0
 43
0.0
 44
0.0
 50
0.0
 51
0.0
 71
     0
 72
   100
 73
     1
 74
     3
 75
     0
 76
     0
 77
     0
 78
     0
281
     0
 65
     1
110
0.0
120
0.0
130
0.0
111
1.0
121
0.0
131
0.0
112
0.0
122
1.0
132
0.0
 79
     0
146
0.0
 60
     3
 61
     5
292
     1
282
     1
141
0.0
142
0.0
 63
   250
361
3F
  0
ENDTAB
  0
TABLE
  2
LTYPE
  5
5
330
0
100
AcDbSymbolTable
 70
     1
  0
LTYPE
  5
14
330
5
100
AcDbSymbolTableRecord
100
AcDbLinetypeTableRecord
  2
ByBlock
 70
     0
  3

 72
    65
 73
     0
 40
0.0
  0
LTYPE
  5
15
330
5
100
AcDbSymbolTableRecord
100
AcDbLinetypeTableRecord
  2
ByLayer
 70
     0
  3

 72
    65
 73
     0
 40
0.0
  0
LTYPE
  5
16
330
5
100
AcDbSymbolTableRecord
100
AcDbLinetypeTableRecord
  2
Continuous
 70
     0
  3
Solid line
 72
    65
 73
     0
 40
0.0
  0
ENDTAB
  0
TABLE
  2
LAYER
  5
2
330
0
100
AcDbSymbolTable
 70
     2
  0
LAYER
  5
10
330
2
100
AcDbSymbolTableRecord
100
AcDbLayerTableRecord
  2
0
 70
     0
 62
     7
  6
Continuous
370
    -3
390
F
347
3E
  0
LAYER
  5
40
330
2
100
AcDbSymbolTableRecord
100
AcDbLayerTableRecord
  2
_U+B808_U+C774_U+C5B4 1
 70
     0
 62
     7
  6
Continuous
370
    -3
390
F
347
3E
  0
ENDTAB
  0
TABLE
  2
STYLE
  5
3
330
0
100
AcDbSymbolTable
 70
     1
  0
STYLE
  5
11
330
3
100
AcDbSymbolTableRecord
100
AcDbTextStyleTableRecord
  2
Standard
 70
     0
 40
0.0
 41
1.0
 50
0.0
 71
     0
 42
0.2
  3
txt
  4

  0
ENDTAB
  0
TABLE
  2
VIEW
  5
6
330
0
100
AcDbSymbolTable
 70
     0
  0
ENDTAB
  0
TABLE
  2
UCS
  5
7
330
0
100
AcDbSymbolTable
 70
     0
  0
ENDTAB
  0
TABLE
  2
APPID
  5
9
330
0
100
AcDbSymbolTable
 70
     1
  0
APPID
  5
12
330
9
100
AcDbSymbolTableRecord
100
AcDbRegAppTableRecord
  2
ACAD
 70
     0
  0
ENDTAB
  0
TABLE
  2
DIMSTYLE
  5
A
330
0
100
AcDbSymbolTable
 70
     1
100
AcDbDimStyleTable
  0
DIMSTYLE
105
27
330
A
100
AcDbSymbolTableRecord
100
AcDbDimStyleTableRecord
  2
Standard
 70
     0
178
     0
340
11
  0
ENDTAB
  0
TABLE
  2
BLOCK_RECORD
  5
1
330
0
100
AcDbSymbolTable
 70
     1
  0
BLOCK_RECORD
  5
1F
330
1
100
AcDbSymbolTableRecord
100
AcDbBlockTableRecord
  2
*Model_Space
340
22
 70
     0
280
     1
281
     0
  0
BLOCK_RECORD
  5
1B
330
1
100
AcDbSymbolTableRecord
100
AcDbBlockTableRecord
  2
*Paper_Space
340
1E
 70
     0
280
     1
281
     0
  0
BLOCK_RECORD
  5
23
330
1
100
AcDbSymbolTableRecord
100
AcDbBlockTableRecord
  2
*Paper_Space0
340
26
 70
     0
280
     1
281
     0
  0
ENDTAB
  0
ENDSEC
  0
SECTION
  2
BLOCKS
  0
BLOCK
  5
20
330
1F
100
AcDbEntity
  8
0
100
AcDbBlockBegin
  2
*Model_Space
 70
     0
 10
0.0
 20
0.0
 30
0.0
  3
*Model_Space
  1

  0
ENDBLK
  5
21
330
1F
100
AcDbEntity
  8
0
100
AcDbBlockEnd
  0
BLOCK
  5
1C
330
1B
100
AcDbEntity
 67
     1
  8
0
100
AcDbBlockBegin
  2
*Paper_Space
 70
     0
 10
0.0
 20
0.0
 30
0.0
  3
*Paper_Space
  1

  0
ENDBLK
  5
1D
330
1B
100
AcDbEntity
 67
     1
  8
0
100
AcDbBlockEnd
  0
BLOCK
  5
24
330
23
100
AcDbEntity
  8
0
100
AcDbBlockBegin
  2
*Paper_Space0
 70
     0
 10
0.0
 20
0.0
 30
0.0
  3
*Paper_Space0
  1

  0
ENDBLK
  5
25
330
23
100
AcDbEntity
  8
0
100
AcDbBlockEnd
  0
ENDSEC
  0
SECTION
  2
ENTITIES
  0
SPLINE
  5
41
330
1F
100
AcDbEntity
  8
_U+B808_U+C774_U+C5B4 1
370
     0
100
AcDbSpline
210
0.0
220
0.0
230
1.0
 70
    11
 71
     3
 72
   359
 73
   355
 74
     0
 42
0.0000000001
 43
0.0000000001
 12
1.0
 22
0.0
 32
0.0
 13
1.0
 23
0.0
 33
0.0
 40
0.0
 40
0.0
 40
0.0
 40
0.0
 40
1.0
 40
1.0
 40
1.0
 40
2.0
 40
2.0
 40
2.0
 40
3.0
 40
3.0
 40
3.0
 40
4.0
 40
4.0
 40
4.0
 40
5.0
 40
5.0
 40
5.0
 40
6.0
 40
6.0
 40
6.0
 40
7.0
 40
7.0
 40
7.0
 40
8.0
 40
8.0
 40
8.0
 40
9.0
 40
9.0
 40
9.0
 40
10.0
 40
10.0
 40
10.0
 40
11.0
 40
11.0
 40
11.0
 40
12.0
 40
12.0
 40
12.0
 40
13.0
 40
13.0
 40
13.0
 40
14.0
 40
14.0
 40
14.0
 40
15.0
 40
15.0
 40
15.0
 40
16.0
 40
16.0
 40
16.0
 40
17.0
 40
17.0
 40
17.0
 40
18.0
 40
18.0
 40
18.0
 40
19.0
 40
19.0
 40
19.0
 40
20.0
 40
20.0
 40
20.0
 40
21.0
 40
21.0
 40
21.0
 40
22.0
 40
22.0
 40
22.0
 40
23.0
 40
23.0
 40
23.0
 40
24.0
 40
24.0
 40
24.0
 40
25.0
 40
25.0
 40
25.0
 40
26.0
 40
26.0
 40
26.0
 40
27.0
 40
27.0
 40
27.0
 40
28.0
 40
28.0
 40
28.0
 40
29.0
 40
29.0
 40
29.0
 40
30.0
 40
30.0
 40
30.0
 40
31.0
 40
31.0
 40
31.0
 40
32.0
 40
32.0
 40
32.0
 40
33.0
 40
33.0
 40
33.0
 40
34.0
 40
34.0
 40
34.0
 40
35.0
 40
35.0
 40
35.0
 40
36.0
 40
36.0
 40
36.0
 40
37.0
 40
37.0
 40
37.0
 40
38.0
 40
38.0
 40
38.0
 40
39.0
 40
39.0
 40
39.0
 40
40.0
 40
40.0
 40
40.0
 40
41.0
 40
41.0
 40
41.0
 40
42.0
 40
42.0
 40
42.0
 40
43.0
 40
43.0
 40
43.0
 40
44.0
 40
44.0
 40
44.0
 40
45.0
 40
45.0
 40
45.0
 40
46.0
 40
46.0
 40
46.0
 40
47.0
 40
47.0
 40
47.0
 40
48.0
 40
48.0
 40
48.0
 40
49.0
 40
49.0
 40
49.0
 40
50.0
 40
50.0
 40
50.0
 40
51.0
 40
51.0
 40
51.0
 40
52.0
 40
52.0
 40
52.0
 40
53.0
 40
53.0
 40
53.0
 40
54.0
 40
54.0
 40
54.0
 40
55.0
 40
55.0
 40
55.0
 40
56.0
 40
56.0
 40
56.0
 40
57.0
 40
57.0
 40
57.0
 40
58.0
 40
58.0
 40
58.0
 40
59.0
 40
59.0
 40
59.0
 40
60.0
 40
60.0
 40
60.0
 40
61.0
 40
61.0
 40
61.0
 40
62.0
 40
62.0
 40
62.0
 40
63.0
 40
63.0
 40
63.0
 40
64.0
 40
64.0
 40
64.0
 40
65.0
 40
65.0
 40
65.0
 40
66.0
 40
66.0
 40
66.0
 40
67.0
 40
67.0
 40
67.0
 40
68.0
 40
68.0
 40
68.0
 40
69.0
 40
69.0
 40
69.0
 40
70.0
 40
70.0
 40
70.0
 40
71.0
 40
71.0
 40
71.0
 40
72.0
 40
72.0
 40
72.0
 40
73.0
 40
73.0
 40
73.0
 40
74.0
 40
74.0
 40
74.0
 40
75.0
 40
75.0
 40
75.0
 40
76.0
 40
76.0
 40
76.0
 40
77.0
 40
77.0
 40
77.0
 40
78.0
 40
78.0
 40
78.0
 40
79.0
 40
79.0
 40
79.0
 40
80.0
 40
80.0
 40
80.0
 40
81.0
 40
81.0
 40
81.0
 40
82.0
 40
82.0
 40
82.0
 40
83.0
 40
83.0
 40
83.0
 40
84.0
 40
84.0
 40
84.0
 40
85.0
 40
85.0
 40
85.0
 40
86.0
 40
86.0
 40
86.0
 40
87.0
 40
87.0
 40
87.0
 40
88.0
 40
88.0
 40
88.0
 40
89.0
 40
89.0
 40
89.0
 40
90.0
 40
90.0
 40
90.0
 40
91.0
 40
91.0
 40
91.0
 40
92.0
 40
92.0
 40
92.0
 40
93.0
 40
93.0
 40
93.0
 40
94.0
 40
94.0
 40
94.0
 40
95.0
 40
95.0
 40
95.0
 40
96.0
 40
96.0
 40
96.0
 40
97.0
 40
97.0
 40
97.0
 40
98.0
 40
98.0
 40
98.0
 40
99.0
 40
99.0
 40
99.0
 40
100.0
 40
100.0
 40
100.0
 40
101.0
 40
101.0
 40
101.0
 40
102.0
 40
102.0
 40
102.0
 40
103.0
 40
103.0
 40
103.0
 40
104.0
 40
104.0
 40
104.0
 40
105.0
 40
105.0
 40
105.0
 40
106.0
 40
106.0
 40
106.0
 40
107.0
 40
107.0
 40
107.0
 40
108.0
 40
108.0
 40
108.0
 40
109.0
 40
109.0
 40
109.0
 40
110.0
 40
110.0
 40
110.0
 40
111.0
 40
111.0
 40
111.0
 40
112.0
 40
112.0
 40
112.0
 40
113.0
 40
113.0
 40
113.0
 40
114.0
 40
114.0
 40
114.0
 40
115.0
 40
115.0
 40
115.0
 40
116.0
 40
116.0
 40
116.0
 40
117.0
 40
117.0
 40
117.0
 40
118.0
 40
118.0
 40
118.0
 40
118.0
 10
2577.888677410372
 20
-1310.118839804069
 30
0.0
 10
2580.268804363497
 20
-1308.0688520111
 30
0.0
 10
2581.148687175997
 20
-1304.448795858756
 30
0.0
 10
2579.978765300997
 20
-1301.538822714225
 30
0.0
 10
2575.508794597872
 20
-1299.378849569694
 30
0.0
 10
2577.828618816622
 20
-1292.408817831412
 30
0.0
 10
2575.758794597872
 20
-1287.898808065787
 30
0.0
 10
2574.418706707247
 20
-1284.998844686881
 30
0.0
 10
2571.338628582247
 20
-1283.398808065787
 30
0.0
 10
2568.618657879122
 20
-1281.718815390006
 30
0.0
 10
2561.828618816622
 20
-1277.538822714225
 30
0.0
 10
2556.218755535372
 20
-1271.738834921256
 30
0.0
 10
2550.688726238497
 20
-1265.998844686881
 30
0.0
 10
2546.538823894747
 20
-1261.698795858756
 30
0.0
 10
2542.278814129122
 20
-1257.218815390006
 30
0.0
 10
2540.248784832247
 20
-1251.598820272819
 30
0.0
 10
2539.638677410372
 20
-1249.928837362662
 30
0.0
 10
2539.288823894747
 20
-1248.118839804069
 30
0.0
 10
2539.228765300997
 20
-1246.308842245475
 30
0.0
 10
2534.238775066622
 20
-1245.838810507194
 30
0.0
 10
2529.628667644747
 20
-1243.288822714225
 30
0.0
 10
2525.238775066622
 20
-1240.79883247985
 30
0.0
 10
2522.928716472872
 20
-1239.498844686881
 30
0.0
 10
2520.558599285372
 20
-1238.138798300162
 30
0.0
 10
2518.958745769747
 20
-1236.038822714225
 30
0.0
 10
2517.348638347872
 20
-1233.928837362662
 30
0.0
 10
2516.698736004122
 20
-1230.868839804069
 30
0.0
 10
2518.108648113497
 20
-1228.628849569694
 30
0.0
 10
2520.698736004122
 20
-1229.978825155631
 30
0.0
 10
2523.548589519747
 20
-1230.828800741569
 30
0.0
 10
2526.448736004122
 20
-1231.128849569694
 30
0.0
 10
2527.198736004122
 20
-1223.968815390006
 30
0.0
 10
2527.718755535372
 20
-1215.968815390006
 30
0.0
 10
2523.188726238497
 20
-1210.358830038444
 30
0.0
 10
2521.708745769747
 20
-1208.518803182975
 30
0.0
 10
2519.778814129122
 20
-1207.098820272819
 30
0.0
 10
2517.878667644747
 20
-1205.698795858756
 30
0.0
 10
2513.428716472872
 20
-1202.418827597037
 30
0.0
 10
2508.978765300997
 20
-1199.138798300162
 30
0.0
 10
2504.518804363497
 20
-1195.858830038444
 30
0.0
 10
2507.868657879122
 20
-1192.988834921256
 30
0.0
 10
2511.208745769747
 20
-1190.118839804069
 30
0.0
 10
2514.558599285372
 20
-1187.248844686881
 30
0.0
 10
2515.758794597872
 20
-1186.218815390006
 30
0.0
 10
2516.998784832247
 20
-1185.138798300162
 30
0.0
 10
2517.688726238497
 20
-1183.708805624381
 30
0.0
 10
2518.978765300997
 20
-1181.018803182975
 30
0.0
 10
2517.948736004122
 20
-1177.688847128287
 30
0.0
 10
2515.978765300997
 20
-1175.448795858756
 30
0.0
 10
2514.008794597872
 20
-1173.208805624381
 30
0.0
 10
2511.268804363497
 20
-1171.838810507194
 30
0.0
 10
2508.588628582247
 20
-1170.518803182975
 30
0.0
 10
2509.938726238497
 20
-1173.668827597037
 30
0.0
 10
2508.438726238497
 20
-1177.498844686881
 30
0.0
 10
2505.808599285372
 20
-1179.698795858756
 30
0.0
 10
2503.188726238497
 20
-1181.908817831412
 30
0.0
 10
2499.698736004122
 20
-1182.788822714225
 30
0.0
 10
2496.298589519747
 20
-1183.218815390006
 30
0.0
 10
2489.888677410372
 20
-1184.038822714225
 30
0.0
 10
2481.498784832247
 20
-1181.968815390006
 30
0.0
 10
2480.658696941622
 20
-1175.54883247985
 30
0.0
 10
2479.888677410372
 20
-1169.638798300162
 30
0.0
 10
2486.248784832247
 20
-1165.348820272819
 30
0.0
 10
2488.148687175997
 20
-1159.698795858756
 30
0.0
 10
2490.408696941622
 20
-1152.958805624381
 30
0.0
 10
2485.958745769747
 20
-1145.938847128287
 30
0.0
 10
2484.678716472872
 20
-1138.928837362662
 30
0.0
 10
2483.298589519747
 20
-1139.58887154235
 30
0.0
 10
2481.848638347872
 20
-1140.08887154235
 30
0.0
 10
2480.838628582247
 20
-1141.368900839225
 30
0.0
 10
2479.068609050997
 20
-1143.618900839225
 30
0.0
 10
2475.718755535372
 20
-1143.7788129486
 30
0.0
 10
2473.868657879122
 20
-1146.308842245475
 30
0.0
 10
2472.338628582247
 20
-1148.418827597037
 30
0.0
 10
2470.138677410372
 20
-1150.038822714225
 30
0.0
 10
2468.268804363497
 20
-1151.848820272819
 30
0.0
 10
2469.018804363497
 20
-1152.688847128287
 30
0.0
 10
2469.628667644747
 20
-1153.378849569694
 30
0.0
 10
2470.258794597872
 20
-1154.088810507194
 30
0.0
 10
2468.048589519747
 20
-1156.118839804069
 30
0.0
 10
2466.458745769747
 20
-1158.388798300162
 30
0.0
 10
2465.118657879122
 20
-1161.038822714225
 30
0.0
 10
2463.528814129122
 20
-1164.168827597037
 30
0.0
 10
2465.308599285372
 20
-1167.518803182975
 30
0.0
 10
2463.758794597872
 20
-1170.608830038444
 30
0.0
 10
2462.388677410372
 20
-1171.128849569694
 30
0.0
 10
2460.578618816622
 20
-1170.968815390006
 30
0.0
 10
2459.688726238497
 20
-1172.628849569694
 30
0.0
 10
2456.718755535372
 20
-1172.398808065787
 30
0.0
 10
2456.898687175997
 20
-1175.358830038444
 30
0.0
 10
2455.478765300997
 20
-1176.648808065787
 30
0.0
 10
2453.418706707247
 20
-1178.538822714225
 30
0.0
 10
2456.238775066622
 20
-1179.058842245475
 30
0.0
 10
2456.048589519747
 20
-1180.2788129486
 30
0.0
 10
2455.468755535372
 20
-1180.518803182975
 30
0.0
 10
2454.908696941622
 20
-1180.918827597037
 30
0.0
 10
2454.318609050997
 20
-1180.948795858756
 30
0.0
 10
2451.778814129122
 20
-1181.118839804069
 30
0.0
 10
2448.968755535372
 20
-1180.25879341735
 30
0.0
 10
2447.158696941622
 20
-1182.978825155631
 30
0.0
 10
2445.258794597872
 20
-1183.128849569694
 30
0.0
 10
2443.548589519747
 20
-1182.948795858756
 30
0.0
 10
2441.648687175997
 20
-1184.318790975944
 30
0.0
 10
2440.088628582247
 20
-1185.448795858756
 30
0.0
 10
2437.258794597872
 20
-1184.898808065787
 30
0.0
 10
2434.988775066622
 20
-1184.958805624381
 30
0.0
 10
2432.358648113497
 20
-1185.038822714225
 30
0.0
 10
2429.718755535372
 20
-1184.978825155631
 30
0.0
 10
2428.078618816622
 20
-1184.978825155631
 30
0.0
 10
2422.238775066622
 20
-1188.018803182975
 30
0.0
 10
2421.488775066622
 20
-1193.598820272819
 30
0.0
 10
2418.758794597872
 20
-1197.808842245475
 30
0.0
 10
2417.148687175997
 20
-1200.2788129486
 30
0.0
 10
2415.598638347872
 20
-1203.3188520111
 30
0.0
 10
2416.268804363497
 20
-1206.7788129486
 30
0.0
 10
2416.498784832247
 20
-1207.958805624381
 30
0.0
 10
2416.418706707247
 20
-1209.768803182975
 30
0.0
 10
2415.688726238497
 20
-1210.448795858756
 30
0.0
 10
2413.588628582247
 20
-1212.418827597037
 30
0.0
 10
2414.628667644747
 20
-1214.75879341735
 30
0.0
 10
2414.328618816622
 20
-1216.938847128287
 30
0.0
 10
2414.028814129122
 20
-1219.108830038444
 30
0.0
 10
2411.668706707247
 20
-1220.458805624381
 30
0.0
 10
2412.238775066622
 20
-1223.128849569694
 30
0.0
 10
2412.708745769747
 20
-1225.348820272819
 30
0.0
 10
2412.328618816622
 20
-1227.748844686881
 30
0.0
 10
2412.328618816622
 20
-1229.978825155631
 30
0.0
 10
2412.898687175997
 20
-1230.538822714225
 30
0.0
 10
2413.748784832247
 20
-1230.988834921256
 30
0.0
 10
2413.778814129122
 20
-1231.488834921256
 30
0.0
 10
2414.098638347872
 20
-1237.04883247985
 30
0.0
 10
2414.298589519747
 20
-1242.618839804069
 30
0.0
 10
2414.518804363497
 20
-1247.79883247985
 30
0.0
 10
2412.238775066622
 20
-1250.078800741569
 30
0.0
 10
2410.348638347872
 20
-1251.958805624381
 30
0.0
 10
2408.468755535372
 20
-1253.848820272819
 30
0.0
 10
2408.358648113497
 20
-1255.428837362662
 30
0.0
 10
2408.248784832247
 20
-1256.998844686881
 30
0.0
 10
2408.068609050997
 20
-1259.54883247985
 30
0.0
 10
2405.978765300997
 20
-1258.188847128287
 30
0.0
 10
2403.958745769747
 20
-1260.058842245475
 30
0.0
 10
2402.528814129122
 20
-1258.238834921256
 30
0.0
 10
2402.288823894747
 20
-1257.058842245475
 30
0.0
 10
2402.108648113497
 20
-1256.148808065787
 30
0.0
 10
2401.948736004122
 20
-1255.348820272819
 30
0.0
 10
2398.398687175997
 20
-1254.628849569694
 30
0.0
 10
2395.418706707247
 20
-1254.728825155631
 30
0.0
 10
2392.548589519747
 20
-1256.918827597037
 30
0.0
 10
2390.258794597872
 20
-1258.668827597037
 30
0.0
 10
2387.438726238497
 20
-1259.438847128287
 30
0.0
 10
2384.428716472872
 20
-1258.998844686881
 30
0.0
 10
2383.448736004122
 20
-1258.858830038444
 30
0.0
 10
2381.898687175997
 20
-1258.558842245475
 30
0.0
 10
2381.518804363497
 20
-1259.04883247985
 30
0.0
 10
2379.198736004122
 20
-1261.968815390006
 30
0.0
 10
2376.118657879122
 20
-1260.788822714225
 30
0.0
 10
2373.278814129122
 20
-1260.928837362662
 30
0.0
 10
2371.878667644747
 20
-1259.618839804069
 30
0.0
 10
2370.708745769747
 20
-1257.5688520111
 30
0.0
 10
2368.418706707247
 20
-1259.828800741569
 30
0.0
 10
2367.798589519747
 20
-1260.428837362662
 30
0.0
 10
2366.778814129122
 20
-1260.868839804069
 30
0.0
 10
2365.918706707247
 20
-1260.928837362662
 30
0.0
 10
2363.628667644747
 20
-1261.078800741569
 30
0.0
 10
2361.328618816622
 20
-1260.978825155631
 30
0.0
 10
2359.108648113497
 20
-1263.558842245475
 30
0.0
 10
2359.298589519747
 20
-1265.398808065787
 30
0.0
 10
2355.678716472872
 20
-1265.808842245475
 30
0.0
 10
2354.328618816622
 20
-1268.098820272819
 30
0.0
 10
2354.328618816622
 20
-1269.788822714225
 30
0.0
 10
2353.698736004122
 20
-1272.098820272819
 30
0.0
 10
2354.508794597872
 20
-1273.648808065787
 30
0.0
 10
2355.368657879122
 20
-1275.2788129486
 30
0.0
 10
2355.758794597872
 20
-1277.498844686881
 30
0.0
 10
2357.078618816622
 20
-1278.518803182975
 30
0.0
 10
2359.388677410372
 20
-1280.308842245475
 30
0.0
 10
2357.168706707247
 20
-1283.198795858756
 30
0.0
 10
2359.128667644747
 20
-1284.738834921256
 30
0.0
 10
2361.108648113497
 20
-1286.29883247985
 30
0.0
 10
2360.398687175997
 20
-1288.428837362662
 30
0.0
 10
2360.238775066622
 20
-1290.248844686881
 30
0.0
 10
2360.068609050997
 20
-1292.118839804069
 30
0.0
 10
2361.748784832247
 20
-1292.8188520111
 30
0.0
 10
2361.858648113497
 20
-1293.288822714225
 30
0.0
 10
2360.138677410372
 20
-1295.538822714225
 30
0.0
 10
2358.788823894747
 20
-1297.3188520111
 30
0.0
 10
2357.658696941622
 20
-1298.79883247985
 30
0.0
 10
2356.128667644747
 20
-1297.878849569694
 30
0.0
 10
2355.068609050997
 20
-1297.248844686881
 30
0.0
 10
2353.818609050997
 20
-1296.498844686881
 30
0.0
 10
2352.188726238497
 20
-1298.128849569694
 30
0.0
 10
2350.588628582247
 20
-1299.358830038444
 30
0.0
 10
2349.468755535372
 20
-1300.938847128287
 30
0.0
 10
2348.208745769747
 20
-1302.728825155631
 30
0.0
 10
2346.148687175997
 20
-1302.708805624381
 30
0.0
 10
2344.478765300997
 20
-1303.7788129486
 30
0.0
 10
2344.368657879122
 20
-1305.958805624381
 30
0.0
 10
2344.258794597872
 20
-1308.198795858756
 30
0.0
 10
2344.148687175997
 20
-1310.338810507194
 30
0.0
 10
2342.718755535372
 20
-1310.848820272819
 30
0.0
 10
2341.568609050997
 20
-1311.25879341735
 30
0.0
 10
2340.968755535372
 20
-1311.468815390006
 30
0.0
 10
2338.438726238497
 20
-1315.708805624381
 30
0.0
 10
2343.988775066622
 20
-1318.168827597037
 30
0.0
 10
2342.328618816622
 20
-1321.958805624381
 30
0.0
 10
2344.248784832247
 20
-1322.968815390006
 30
0.0
 10
2346.068609050997
 20
-1324.25879341735
 30
0.0
 10
2348.098638347872
 20
-1324.898808065787
 30
0.0
 10
2349.898687175997
 20
-1325.468815390006
 30
0.0
 10
2352.388677410372
 20
-1324.688847128287
 30
0.0
 10
2353.738775066622
 20
-1325.658817831412
 30
0.0
 10
2355.558599285372
 20
-1326.968815390006
 30
0.0
 10
2358.238775066622
 20
-1326.738834921256
 30
0.0
 10
2359.408696941622
 20
-1328.978825155631
 30
0.0
 10
2361.448736004122
 20
-1328.708805624381
 30
0.0
 10
2361.708745769747
 20
-1329.848820272819
 30
0.0
 10
2362.538823894747
 20
-1331.538822714225
 30
0.0
 10
2363.788823894747
 20
-1334.088810507194
 30
0.0
 10
2366.308599285372
 20
-1336.068790975944
 30
0.0
 10
2368.488775066622
 20
-1338.068790975944
 30
0.0
 10
2370.658696941622
 20
-1340.068790975944
 30
0.0
 10
2370.528814129122
 20
-1343.568790975944
 30
0.0
 10
2373.388677410372
 20
-1345.088810507194
 30
0.0
 10
2374.478765300997
 20
-1345.668827597037
 30
0.0
 10
2375.328618816622
 20
-1346.54883247985
 30
0.0
 10
2376.538823894747
 20
-1347.128849569694
 30
0.0
 10
2379.398687175997
 20
-1348.498844686881
 30
0.0
 10
2382.158696941622
 20
-1350.398808065787
 30
0.0
 10
2382.478765300997
 20
-1354.128849569694
 30
0.0
 10
2384.468755535372
 20
-1355.118839804069
 30
0.0
 10
2383.958745769747
 20
-1357.558842245475
 30
0.0
 10
2385.288823894747
 20
-1358.968815390006
 30
0.0
 10
2386.798589519747
 20
-1360.578800741569
 30
0.0
 10
2386.508794597872
 20
-1363.768803182975
 30
0.0
 10
2388.868657879122
 20
-1364.358830038444
 30
0.0
 10
2391.328618816622
 20
-1364.968815390006
 30
0.0
 10
2392.948736004122
 20
-1367.468815390006
 30
0.0
 10
2395.808599285372
 20
-1367.018803182975
 30
0.0
 10
2398.178716472872
 20
-1366.648808065787
 30
0.0
 10
2399.788823894747
 20
-1368.698795858756
 30
0.0
 10
2400.118657879122
 20
-1370.25879341735
 30
0.0
 10
2400.468755535372
 20
-1371.898808065787
 30
0.0
 10
2401.678716472872
 20
-1372.828800741569
 30
0.0
 10
2401.998784832247
 20
-1373.868839804069
 30
0.0
 10
2401.218755535372
 20
-1375.208805624381
 30
0.0
 10
2400.588628582247
 20
-1376.268803182975
 30
0.0
 10
2399.768804363497
 20
-1377.668827597037
 30
0.0
 10
2402.288823894747
 20
-1379.75879341735
 30
0.0
 10
2404.578618816622
 20
-1381.648808065787
 30
0.0
 10
2406.898687175997
 20
-1383.568790975944
 30
0.0
 10
2405.508794597872
 20
-1386.608830038444
 30
0.0
 10
2407.398687175997
 20
-1388.238834921256
 30
0.0
 10
2408.138677410372
 20
-1390.308842245475
 30
0.0
 10
2408.988775066622
 20
-1392.668827597037
 30
0.0
 10
2408.458745769747
 20
-1395.578800741569
 30
0.0
 10
2408.308599285372
 20
-1398.228825155631
 30
0.0
 10
2408.018804363497
 20
-1402.968815390006
 30
0.0
 10
2409.518804363497
 20
-1406.878788534537
 30
0.0
 10
2412.678716472872
 20
-1410.458805624381
 30
0.0
 10
2414.968755535372
 20
-1413.038822714225
 30
0.0
 10
2416.768804363497
 20
-1416.148808065787
 30
0.0
 10
2416.318609050997
 20
-1419.918827597037
 30
0.0
 10
2416.148687175997
 20
-1421.348820272819
 30
0.0
 10
2417.118657879122
 20
-1422.25879341735
 30
0.0
 10
2417.568609050997
 20
-1423.398808065787
 30
0.0
 10
2418.608648113497
 20
-1426.038822714225
 30
0.0
 10
2419.238775066622
 20
-1428.808842245475
 30
0.0
 10
2416.948736004122
 20
-1431.558842245475
 30
0.0
 10
2415.858648113497
 20
-1432.878788534537
 30
0.0
 10
2415.468755535372
 20
-1434.908817831412
 30
0.0
 10
2414.368657879122
 20
-1436.458805624381
 30
0.0
 10
2413.678716472872
 20
-1437.438786093131
 30
0.0
 10
2414.888677410372
 20
-1438.908817831412
 30
0.0
 10
2416.368657879122
 20
-1438.968815390006
 30
0.0
 10
2417.358648113497
 20
-1439.018803182975
 30
0.0
 10
2418.358648113497
 20
-1438.978825155631
 30
0.0
 10
2419.348638347872
 20
-1438.978825155631
 30
0.0
 10
2420.088628582247
 20
-1440.328800741569
 30
0.0
 10
2420.808599285372
 20
-1441.658817831412
 30
0.0
 10
2421.538823894747
 20
-1442.978825155631
 30
0.0
 10
2424.728765300997
 20
-1442.208805624381
 30
0.0
 10
2424.018804363497
 20
-1445.118839804069
 30
0.0
 10
2425.148687175997
 20
-1446.978825155631
 30
0.0
 10
2428.148687175997
 20
-1446.978825155631
 30
0.0
 10
2431.468755535372
 20
-1446.658817831412
 30
0.0
 10
2434.688726238497
 20
-1447.068790975944
 30
0.0
 10
2437.838628582247
 20
-1447.478825155631
 30
0.0
 10
2440.648687175997
 20
-1446.398808065787
 30
0.0
 10
2442.758794597872
 20
-1444.828800741569
 30
0.0
 10
2445.468755535372
 20
-1442.79883247985
 30
0.0
 10
2448.178716472872
 20
-1443.058842245475
 30
0.0
 10
2451.318609050997
 20
-1442.968815390006
 30
0.0
 10
2452.578618816622
 20
-1444.228825155631
 30
0.0
 10
2453.868657879122
 20
-1445.748844686881
 30
0.0
 10
2455.398687175997
 20
-1446.988834921256
 30
0.0
 10
2455.598638347872
 20
-1447.148808065787
 30
0.0
 10
2455.788823894747
 20
-1447.328800741569
 30
0.0
 10
2455.968755535372
 20
-1447.50879341735
 30
0.0
 10
2457.718755535372
 20
-1444.358830038444
 30
0.0
 10
2458.868657879122
 20
-1440.878788534537
 30
0.0
 10
2459.278814129122
 20
-1437.29883247985
 30
0.0
 10
2459.768804363497
 20
-1433.108830038444
 30
0.0
 10
2460.188726238497
 20
-1427.598820272819
 30
0.0
 10
2464.288823894747
 20
-1426.628788534537
 30
0.0
 10
2465.938726238497
 20
-1426.238834921256
 30
0.0
 10
2467.638677410372
 20
-1426.828800741569
 30
0.0
 10
2469.328618816622
 20
-1426.988834921256
 30
0.0
 10
2475.798589519747
 20
-1427.618839804069
 30
0.0
 10
2481.048589519747
 20
-1422.098820272819
 30
0.0
 10
2485.168706707247
 20
-1417.068790975944
 30
0.0
 10
2478.538823894747
 20
-1408.238834921256
 30
0.0
 10
2476.998784832247
 20
-1395.838810507194
 30
0.0
 10
2481.258794597872
 20
-1385.648808065787
 30
0.0
 10
2482.378667644747
 20
-1382.968815390006
 30
0.0
 10
2483.978765300997
 20
-1380.328800741569
 30
0.0
 10
2486.498784832247
 20
-1378.868839804069
 30
0.0
 10
2490.238775066622
 20
-1376.698795858756
 30
0.0
 10
2495.038823894747
 20
-1377.638798300162
 30
0.0
 10
2499.108648113497
 20
-1376.158817831412
 30
0.0
 10
2505.398687175997
 20
-1373.868839804069
 30
0.0
 10
2508.238775066622
 20
-1366.648808065787
 30
0.0
 10
2509.638677410372
 20
-1360.098820272819
 30
0.0
 10
2510.008794597872
 20
-1358.348820272819
 30
0.0
 10
2510.348638347872
 20
-1356.54883247985
 30
0.0
 10
2511.308599285372
 20
-1355.0288129486
 30
0.0
 10
2512.078618816622
 20
-1353.808842245475
 30
0.0
 10
2513.218755535372
 20
-1352.848820272819
 30
0.0
 10
2514.378667644747
 20
-1351.978825155631
 30
0.0
 10
2519.098638347872
 20
-1348.458805624381
 30
0.0
 10
2524.628667644747
 20
-1346.018803182975
 30
0.0
 10
2530.418706707247
 20
-1344.908817831412
 30
0.0
 10
2530.608648113497
 20
-1343.388798300162
 30
0.0
 10
2530.788823894747
 20
-1341.868839804069
 30
0.0
 10
2530.978765300997
 20
-1340.348820272819
 30
0.0
 10
2534.758794597872
 20
-1340.098820272819
 30
0.0
 10
2538.358648113497
 20
-1337.888798300162
 30
0.0
 10
2540.288823894747
 20
-1334.628849569694
 30
0.0
 10
2541.708745769747
 20
-1337.928837362662
 30
0.0
 10
2545.718755535372
 20
-1339.858830038444
 30
0.0
 10
2549.188726238497
 20
-1338.918827597037
 30
0.0
 10
2552.648687175997
 20
-1337.978825155631
 30
0.0
 10
2555.128667644747
 20
-1334.268803182975
 30
0.0
 10
2554.678716472872
 20
-1330.708805624381
 30
0.0
 10
2561.018804363497
 20
-1333.268803182975
 30
0.0
 10
2568.498784832247
 20
-1332.858830038444
 30
0.0
 10
2574.508794597872
 20
-1329.608830038444
 30
0.0
 10
2575.918706707247
 20
-1328.848820272819
 30
0.0
 10
2577.298589519747
 20
-1327.888798300162
 30
0.0
 10
2577.988775066622
 20
-1326.448795858756
 30
0.0
 10
2578.638677410372
 20
-1325.098820272819
 30
0.0
 10
2578.568609050997
 20
-1323.518803182975
 30
0.0
 10
2578.498784832247
 20
-1322.018803182975
 30
0.0
 10
2578.288823894747
 20
-1318.04883247985
 30
0.0
 10
2578.088628582247
 20
-1314.088810507194
 30
0.0
 10
2577.888677410372
 20
-1310.118839804069
 30
0.0
  0
SPLINE
  5
42
330
1F
100
AcDbEntity
  8
_U+B808_U+C774_U+C5B4 1
370
     0
100
AcDbSpline
210
0.0
220
0.0
230
1.0
 70
    11
 71
     3
 72
    20
 73
    16
 74
     0
 42
0.0000000001
 43
0.0000000001
 12
1.0
 22
0.0
 32
0.0
 13
1.0
 23
0.0
 33
0.0
 40
0.0
 40
0.0
 40
0.0
 40
0.0
 40
1.0
 40
1.0
 40
1.0
 40
2.0
 40
2.0
 40
2.0
 40
3.0
 40
3.0
 40
3.0
 40
4.0
 40
4.0
 40
4.0
 40
5.0
 40
5.0
 40
5.0
 40
5.0
 10
2359.538823894747
 20
-1266.75879341735
 30
0.0
 10
2359.098638347872
 20
-1266.5288129486
 30
0.0
 10
2358.668706707247
 20
-1266.228825155631
 30
0.0
 10
2358.358648113497
 20
-1265.848820272819
 30
0.0
 10
2358.208745769747
 20
-1265.678837362662
 30
0.0
 10
2358.218755535372
 20
-1265.158817831412
 30
0.0
 10
2358.368657879122
 20
-1265.018803182975
 30
0.0
 10
2358.518804363497
 20
-1264.868839804069
 30
0.0
 10
2359.028814129122
 20
-1264.858830038444
 30
0.0
 10
2359.208745769747
 20
-1265.00879341735
 30
0.0
 10
2359.348638347872
 20
-1265.128849569694
 30
0.0
 10
2359.478765300997
 20
-1265.248844686881
 30
0.0
 10
2359.538823894747
 20
-1265.25879341735
 30
0.0
 10
2359.788823894747
 20
-1266.558842245475
 30
0.0
 10
2359.588628582247
 20
-1266.788822714225
 30
0.0
 10
2359.538823894747
 20
-1266.75879341735
 30
0.0
  0
HATCH
  5
43
330
1F
100
AcDbEntity
  8
_U+B808_U+C774_U+C5B4 1
 62
     7
420
 15859191
100
AcDbHatch
 10
0.0
 20
0.0
 30
0.0
210
0.0
220
0.0
230
1.0
  2
SOLID
 70
     1
 71
     0
 91
        2
 92
        1
 93
        2
 72
     4
 94
        3
 73
     0
 74
     0
 95
      359
 96
      355
 40
0.0
 40
0.0
 40
0.0
 40
0.0
 40
1.0
 40
1.0
 40
1.0
 40
2.0
 40
2.0
 40
2.0
 40
3.0
 40
3.0
 40
3.0
 40
4.0
 40
4.0
 40
4.0
 40
5.0
 40
5.0
 40
5.0
 40
6.0
 40
6.0
 40
6.0
 40
7.0
 40
7.0
 40
7.0
 40
8.0
 40
8.0
 40
8.0
 40
9.0
 40
9.0
 40
9.0
 40
10.0
 40
10.0
 40
10.0
 40
11.0
 40
11.0
 40
11.0
 40
12.0
 40
12.0
 40
12.0
 40
13.0
 40
13.0
 40
13.0
 40
14.0
 40
14.0
 40
14.0
 40
15.0
 40
15.0
 40
15.0
 40
16.0
 40
16.0
 40
16.0
 40
17.0
 40
17.0
 40
17.0
 40
18.0
 40
18.0
 40
18.0
 40
19.0
 40
19.0
 40
19.0
 40
20.0
 40
20.0
 40
20.0
 40
21.0
 40
21.0
 40
21.0
 40
22.0
 40
22.0
 40
22.0
 40
23.0
 40
23.0
 40
23.0
 40
24.0
 40
24.0
 40
24.0
 40
25.0
 40
25.0
 40
25.0
 40
26.0
 40
26.0
 40
26.0
 40
27.0
 40
27.0
 40
27.0
 40
28.0
 40
28.0
 40
28.0
 40
29.0
 40
29.0
 40
29.0
 40
30.0
 40
30.0
 40
30.0
 40
31.0
 40
31.0
 40
31.0
 40
32.0
 40
32.0
 40
32.0
 40
33.0
 40
33.0
 40
33.0
 40
34.0
 40
34.0
 40
34.0
 40
35.0
 40
35.0
 40
35.0
 40
36.0
 40
36.0
 40
36.0
 40
37.0
 40
37.0
 40
37.0
 40
38.0
 40
38.0
 40
38.0
 40
39.0
 40
39.0
 40
39.0
 40
40.0
 40
40.0
 40
40.0
 40
41.0
 40
41.0
 40
41.0
 40
42.0
 40
42.0
 40
42.0
 40
43.0
 40
43.0
 40
43.0
 40
44.0
 40
44.0
 40
44.0
 40
45.0
 40
45.0
 40
45.0
 40
46.0
 40
46.0
 40
46.0
 40
47.0
 40
47.0
 40
47.0
 40
48.0
 40
48.0
 40
48.0
 40
49.0
 40
49.0
 40
49.0
 40
50.0
 40
50.0
 40
50.0
 40
51.0
 40
51.0
 40
51.0
 40
52.0
 40
52.0
 40
52.0
 40
53.0
 40
53.0
 40
53.0
 40
54.0
 40
54.0
 40
54.0
 40
55.0
 40
55.0
 40
55.0
 40
56.0
 40
56.0
 40
56.0
 40
57.0
 40
57.0
 40
57.0
 40
58.0
 40
58.0
 40
58.0
 40
59.0
 40
59.0
 40
59.0
 40
60.0
 40
60.0
 40
60.0
 40
61.0
 40
61.0
 40
61.0
 40
62.0
 40
62.0
 40
62.0
 40
63.0
 40
63.0
 40
63.0
 40
64.0
 40
64.0
 40
64.0
 40
65.0
 40
65.0
 40
65.0
 40
66.0
 40
66.0
 40
66.0
 40
67.0
 40
67.0
 40
67.0
 40
68.0
 40
68.0
 40
68.0
 40
69.0
 40
69.0
 40
69.0
 40
70.0
 40
70.0
 40
70.0
 40
71.0
 40
71.0
 40
71.0
 40
72.0
 40
72.0
 40
72.0
 40
73.0
 40
73.0
 40
73.0
 40
74.0
 40
74.0
 40
74.0
 40
75.0
 40
75.0
 40
75.0
 40
76.0
 40
76.0
 40
76.0
 40
77.0
 40
77.0
 40
77.0
 40
78.0
 40
78.0
 40
78.0
 40
79.0
 40
79.0
 40
79.0
 40
80.0
 40
80.0
 40
80.0
 40
81.0
 40
81.0
 40
81.0
 40
82.0
 40
82.0
 40
82.0
 40
83.0
 40
83.0
 40
83.0
 40
84.0
 40
84.0
 40
84.0
 40
85.0
 40
85.0
 40
85.0
 40
86.0
 40
86.0
 40
86.0
 40
87.0
 40
87.0
 40
87.0
 40
88.0
 40
88.0
 40
88.0
 40
89.0
 40
89.0
 40
89.0
 40
90.0
 40
90.0
 40
90.0
 40
91.0
 40
91.0
 40
91.0
 40
92.0
 40
92.0
 40
92.0
 40
93.0
 40
93.0
 40
93.0
 40
94.0
 40
94.0
 40
94.0
 40
95.0
 40
95.0
 40
95.0
 40
96.0
 40
96.0
 40
96.0
 40
97.0
 40
97.0
 40
97.0
 40
98.0
 40
98.0
 40
98.0
 40
99.0
 40
99.0
 40
99.0
 40
100.0
 40
100.0
 40
100.0
 40
101.0
 40
101.0
 40
101.0
 40
102.0
 40
102.0
 40
102.0
 40
103.0
 40
103.0
 40
103.0
 40
104.0
 40
104.0
 40
104.0
 40
105.0
 40
105.0
 40
105.0
 40
106.0
 40
106.0
 40
106.0
 40
107.0
 40
107.0
 40
107.0
 40
108.0
 40
108.0
 40
108.0
 40
109.0
 40
109.0
 40
109.0
 40
110.0
 40
110.0
 40
110.0
 40
111.0
 40
111.0
 40
111.0
 40
112.0
 40
112.0
 40
112.0
 40
113.0
 40
113.0
 40
113.0
 40
114.0
 40
114.0
 40
114.0
 40
115.0
 40
115.0
 40
115.0
 40
116.0
 40
116.0
 40
116.0
 40
117.0
 40
117.0
 40
117.0
 40
118.0
 40
118.0
 40
118.0
 40
118.0
 10
2577.888677410372
 20
-1310.118839804069
 10
2580.268804363497
 20
-1308.0688520111
 10
2581.148687175997
 20
-1304.448795858756
 10
2579.978765300997
 20
-1301.538822714225
 10
2575.508794597872
 20
-1299.378849569694
 10
2577.828618816622
 20
-1292.408817831412
 10
2575.758794597872
 20
-1287.898808065787
 10
2574.418706707247
 20
-1284.998844686881
 10
2571.338628582247
 20
-1283.398808065787
 10
2568.618657879122
 20
-1281.718815390006
 10
2561.828618816622
 20
-1277.538822714225
 10
2556.218755535372
 20
-1271.738834921256
 10
2550.688726238497
 20
-1265.998844686881
 10
2546.538823894747
 20
-1261.698795858756
 10
2542.278814129122
 20
-1257.218815390006
 10
2540.248784832247
 20
-1251.598820272819
 10
2539.638677410372
 20
-1249.928837362662
 10
2539.288823894747
 20
-1248.118839804069
 10
2539.228765300997
 20
-1246.308842245475
 10
2534.238775066622
 20
-1245.838810507194
 10
2529.628667644747
 20
-1243.288822714225
 10
2525.238775066622
 20
-1240.79883247985
 10
2522.928716472872
 20
-1239.498844686881
 10
2520.558599285372
 20
-1238.138798300162
 10
2518.958745769747
 20
-1236.038822714225
 10
2517.348638347872
 20
-1233.928837362662
 10
2516.698736004122
 20
-1230.868839804069
 10
2518.108648113497
 20
-1228.628849569694
 10
2520.698736004122
 20
-1229.978825155631
 10
2523.548589519747
 20
-1230.828800741569
 10
2526.448736004122
 20
-1231.128849569694
 10
2527.198736004122
 20
-1223.968815390006
 10
2527.718755535372
 20
-1215.968815390006
 10
2523.188726238497
 20
-1210.358830038444
 10
2521.708745769747
 20
-1208.518803182975
 10
2519.778814129122
 20
-1207.098820272819
 10
2517.878667644747
 20
-1205.698795858756
 10
2513.428716472872
 20
-1202.418827597037
 10
2508.978765300997
 20
-1199.138798300162
 10
2504.518804363497
 20
-1195.858830038444
 10
2507.868657879122
 20
-1192.988834921256
 10
2511.208745769747
 20
-1190.118839804069
 10
2514.558599285372
 20
-1187.248844686881
 10
2515.758794597872
 20
-1186.218815390006
 10
2516.998784832247
 20
-1185.138798300162
 10
2517.688726238497
 20
-1183.708805624381
 10
2518.978765300997
 20
-1181.018803182975
 10
2517.948736004122
 20
-1177.688847128287
 10
2515.978765300997
 20
-1175.448795858756
 10
2514.008794597872
 20
-1173.208805624381
 10
2511.268804363497
 20
-1171.838810507194
 10
2508.588628582247
 20
-1170.518803182975
 10
2509.938726238497
 20
-1173.668827597037
 10
2508.438726238497
 20
-1177.498844686881
 10
2505.808599285372
 20
-1179.698795858756
 10
2503.188726238497
 20
-1181.908817831412
 10
2499.698736004122
 20
-1182.788822714225
 10
2496.298589519747
 20
-1183.218815390006
 10
2489.888677410372
 20
-1184.038822714225
 10
2481.498784832247
 20
-1181.968815390006
 10
2480.658696941622
 20
-1175.54883247985
 10
2479.888677410372
 20
-1169.638798300162
 10
2486.248784832247
 20
-1165.348820272819
 10
2488.148687175997
 20
-1159.698795858756
 10
2490.408696941622
 20
-1152.958805624381
 10
2485.958745769747
 20
-1145.938847128287
 10
2484.678716472872
 20
-1138.928837362662
 10
2483.298589519747
 20
-1139.58887154235
 10
2481.848638347872
 20
-1140.08887154235
 10
2480.838628582247
 20
-1141.368900839225
 10
2479.068609050997
 20
-1143.618900839225
 10
2475.718755535372
 20
-1143.7788129486
 10
2473.868657879122
 20
-1146.308842245475
 10
2472.338628582247
 20
-1148.418827597037
 10
2470.138677410372
 20
-1150.038822714225
 10
2468.268804363497
 20
-1151.848820272819
 10
2469.018804363497
 20
-1152.688847128287
 10
2469.628667644747
 20
-1153.378849569694
 10
2470.258794597872
 20
-1154.088810507194
 10
2468.048589519747
 20
-1156.118839804069
 10
2466.458745769747
 20
-1158.388798300162
 10
2465.118657879122
 20
-1161.038822714225
 10
2463.528814129122
 20
-1164.168827597037
 10
2465.308599285372
 20
-1167.518803182975
 10
2463.758794597872
 20
-1170.608830038444
 10
2462.388677410372
 20
-1171.128849569694
 10
2460.578618816622
 20
-1170.968815390006
 10
2459.688726238497
 20
-1172.628849569694
 10
2456.718755535372
 20
-1172.398808065787
 10
2456.898687175997
 20
-1175.358830038444
 10
2455.478765300997
 20
-1176.648808065787
 10
2453.418706707247
 20
-1178.538822714225
 10
2456.238775066622
 20
-1179.058842245475
 10
2456.048589519747
 20
-1180.2788129486
 10
2455.468755535372
 20
-1180.518803182975
 10
2454.908696941622
 20
-1180.918827597037
 10
2454.318609050997
 20
-1180.948795858756
 10
2451.778814129122
 20
-1181.118839804069
 10
2448.968755535372
 20
-1180.25879341735
 10
2447.158696941622
 20
-1182.978825155631
 10
2445.258794597872
 20
-1183.128849569694
 10
2443.548589519747
 20
-1182.948795858756
 10
2441.648687175997
 20
-1184.318790975944
 10
2440.088628582247
 20
-1185.448795858756
 10
2437.258794597872
 20
-1184.898808065787
 10
2434.988775066622
 20
-1184.958805624381
 10
2432.358648113497
 20
-1185.038822714225
 10
2429.718755535372
 20
-1184.978825155631
 10
2428.078618816622
 20
-1184.978825155631
 10
2422.238775066622
 20
-1188.018803182975
 10
2421.488775066622
 20
-1193.598820272819
 10
2418.758794597872
 20
-1197.808842245475
 10
2417.148687175997
 20
-1200.2788129486
 10
2415.598638347872
 20
-1203.3188520111
 10
2416.268804363497
 20
-1206.7788129486
 10
2416.498784832247
 20
-1207.958805624381
 10
2416.418706707247
 20
-1209.768803182975
 10
2415.688726238497
 20
-1210.448795858756
 10
2413.588628582247
 20
-1212.418827597037
 10
2414.628667644747
 20
-1214.75879341735
 10
2414.328618816622
 20
-1216.938847128287
 10
2414.028814129122
 20
-1219.108830038444
 10
2411.668706707247
 20
-1220.458805624381
 10
2412.238775066622
 20
-1223.128849569694
 10
2412.708745769747
 20
-1225.348820272819
 10
2412.328618816622
 20
-1227.748844686881
 10
2412.328618816622
 20
-1229.978825155631
 10
2412.898687175997
 20
-1230.538822714225
 10
2413.748784832247
 20
-1230.988834921256
 10
2413.778814129122
 20
-1231.488834921256
 10
2414.098638347872
 20
-1237.04883247985
 10
2414.298589519747
 20
-1242.618839804069
 10
2414.518804363497
 20
-1247.79883247985
 10
2412.238775066622
 20
-1250.078800741569
 10
2410.348638347872
 20
-1251.958805624381
 10
2408.468755535372
 20
-1253.848820272819
 10
2408.358648113497
 20
-1255.428837362662
 10
2408.248784832247
 20
-1256.998844686881
 10
2408.068609050997
 20
-1259.54883247985
 10
2405.978765300997
 20
-1258.188847128287
 10
2403.958745769747
 20
-1260.058842245475
 10
2402.528814129122
 20
-1258.238834921256
 10
2402.288823894747
 20
-1257.058842245475
 10
2402.108648113497
 20
-1256.148808065787
 10
2401.948736004122
 20
-1255.348820272819
 10
2398.398687175997
 20
-1254.628849569694
 10
2395.418706707247
 20
-1254.728825155631
 10
2392.548589519747
 20
-1256.918827597037
 10
2390.258794597872
 20
-1258.668827597037
 10
2387.438726238497
 20
-1259.438847128287
 10
2384.428716472872
 20
-1258.998844686881
 10
2383.448736004122
 20
-1258.858830038444
 10
2381.898687175997
 20
-1258.558842245475
 10
2381.518804363497
 20
-1259.04883247985
 10
2379.198736004122
 20
-1261.968815390006
 10
2376.118657879122
 20
-1260.788822714225
 10
2373.278814129122
 20
-1260.928837362662
 10
2371.878667644747
 20
-1259.618839804069
 10
2370.708745769747
 20
-1257.5688520111
 10
2368.418706707247
 20
-1259.828800741569
 10
2367.798589519747
 20
-1260.428837362662
 10
2366.778814129122
 20
-1260.868839804069
 10
2365.918706707247
 20
-1260.928837362662
 10
2363.628667644747
 20
-1261.078800741569
 10
2361.328618816622
 20
-1260.978825155631
 10
2359.108648113497
 20
-1263.558842245475
 10
2359.298589519747
 20
-1265.398808065787
 10
2355.678716472872
 20
-1265.808842245475
 10
2354.328618816622
 20
-1268.098820272819
 10
2354.328618816622
 20
-1269.788822714225
 10
2353.698736004122
 20
-1272.098820272819
 10
2354.508794597872
 20
-1273.648808065787
 10
2355.368657879122
 20
-1275.2788129486
 10
2355.758794597872
 20
-1277.498844686881
 10
2357.078618816622
 20
-1278.518803182975
 10
2359.388677410372
 20
-1280.308842245475
 10
2357.168706707247
 20
-1283.198795858756
 10
2359.128667644747
 20
-1284.738834921256
 10
2361.108648113497
 20
-1286.29883247985
 10
2360.398687175997
 20
-1288.428837362662
 10
2360.238775066622
 20
-1290.248844686881
 10
2360.068609050997
 20
-1292.118839804069
 10
2361.748784832247
 20
-1292.8188520111
 10
2361.858648113497
 20
-1293.288822714225
 10
2360.138677410372
 20
-1295.538822714225
 10
2358.788823894747
 20
-1297.3188520111
 10
2357.658696941622
 20
-1298.79883247985
 10
2356.128667644747
 20
-1297.878849569694
 10
2355.068609050997
 20
-1297.248844686881
 10
2353.818609050997
 20
-1296.498844686881
 10
2352.188726238497
 20
-1298.128849569694
 10
2350.588628582247
 20
-1299.358830038444
 10
2349.468755535372
 20
-1300.938847128287
 10
2348.208745769747
 20
-1302.728825155631
 10
2346.148687175997
 20
-1302.708805624381
 10
2344.478765300997
 20
-1303.7788129486
 10
2344.368657879122
 20
-1305.958805624381
 10
2344.258794597872
 20
-1308.198795858756
 10
2344.148687175997
 20
-1310.338810507194
 10
2342.718755535372
 20
-1310.848820272819
 10
2341.568609050997
 20
-1311.25879341735
 10
2340.968755535372
 20
-1311.468815390006
 10
2338.438726238497
 20
-1315.708805624381
 10
2343.988775066622
 20
-1318.168827597037
 10
2342.328618816622
 20
-1321.958805624381
 10
2344.248784832247
 20
-1322.968815390006
 10
2346.068609050997
 20
-1324.25879341735
 10
2348.098638347872
 20
-1324.898808065787
 10
2349.898687175997
 20
-1325.468815390006
 10
2352.388677410372
 20
-1324.688847128287
 10
2353.738775066622
 20
-1325.658817831412
 10
2355.558599285372
 20
-1326.968815390006
 10
2358.238775066622
 20
-1326.738834921256
 10
2359.408696941622
 20
-1328.978825155631
 10
2361.448736004122
 20
-1328.708805624381
 10
2361.708745769747
 20
-1329.848820272819
 10
2362.538823894747
 20
-1331.538822714225
 10
2363.788823894747
 20
-1334.088810507194
 10
2366.308599285372
 20
-1336.068790975944
 10
2368.488775066622
 20
-1338.068790975944
 10
2370.658696941622
 20
-1340.068790975944
 10
2370.528814129122
 20
-1343.568790975944
 10
2373.388677410372
 20
-1345.088810507194
 10
2374.478765300997
 20
-1345.668827597037
 10
2375.328618816622
 20
-1346.54883247985
 10
2376.538823894747
 20
-1347.128849569694
 10
2379.398687175997
 20
-1348.498844686881
 10
2382.158696941622
 20
-1350.398808065787
 10
2382.478765300997
 20
-1354.128849569694
 10
2384.468755535372
 20
-1355.118839804069
 10
2383.958745769747
 20
-1357.558842245475
 10
2385.288823894747
 20
-1358.968815390006
 10
2386.798589519747
 20
-1360.578800741569
 10
2386.508794597872
 20
-1363.768803182975
 10
2388.868657879122
 20
-1364.358830038444
 10
2391.328618816622
 20
-1364.968815390006
 10
2392.948736004122
 20
-1367.468815390006
 10
2395.808599285372
 20
-1367.018803182975
 10
2398.178716472872
 20
-1366.648808065787
 10
2399.788823894747
 20
-1368.698795858756
 10
2400.118657879122
 20
-1370.25879341735
 10
2400.468755535372
 20
-1371.898808065787
 10
2401.678716472872
 20
-1372.828800741569
 10
2401.998784832247
 20
-1373.868839804069
 10
2401.218755535372
 20
-1375.208805624381
 10
2400.588628582247
 20
-1376.268803182975
 10
2399.768804363497
 20
-1377.668827597037
 10
2402.288823894747
 20
-1379.75879341735
 10
2404.578618816622
 20
-1381.648808065787
 10
2406.898687175997
 20
-1383.568790975944
 10
2405.508794597872
 20
-1386.608830038444
 10
2407.398687175997
 20
-1388.238834921256
 10
2408.138677410372
 20
-1390.308842245475
 10
2408.988775066622
 20
-1392.668827597037
 10
2408.458745769747
 20
-1395.578800741569
 10
2408.308599285372
 20
-1398.228825155631
 10
2408.018804363497
 20
-1402.968815390006
 10
2409.518804363497
 20
-1406.878788534537
 10
2412.678716472872
 20
-1410.458805624381
 10
2414.968755535372
 20
-1413.038822714225
 10
2416.768804363497
 20
-1416.148808065787
 10
2416.318609050997
 20
-1419.918827597037
 10
2416.148687175997
 20
-1421.348820272819
 10
2417.118657879122
 20
-1422.25879341735
 10
2417.568609050997
 20
-1423.398808065787
 10
2418.608648113497
 20
-1426.038822714225
 10
2419.238775066622
 20
-1428.808842245475
 10
2416.948736004122
 20
-1431.558842245475
 10
2415.858648113497
 20
-1432.878788534537
 10
2415.468755535372
 20
-1434.908817831412
 10
2414.368657879122
 20
-1436.458805624381
 10
2413.678716472872
 20
-1437.438786093131
 10
2414.888677410372
 20
-1438.908817831412
 10
2416.368657879122
 20
-1438.968815390006
 10
2417.358648113497
 20
-1439.018803182975
 10
2418.358648113497
 20
-1438.978825155631
 10
2419.348638347872
 20
-1438.978825155631
 10
2420.088628582247
 20
-1440.328800741569
 10
2420.808599285372
 20
-1441.658817831412
 10
2421.538823894747
 20
-1442.978825155631
 10
2424.728765300997
 20
-1442.208805624381
 10
2424.018804363497
 20
-1445.118839804069
 10
2425.148687175997
 20
-1446.978825155631
 10
2428.148687175997
 20
-1446.978825155631
 10
2431.468755535372
 20
-1446.658817831412
 10
2434.688726238497
 20
-1447.068790975944
 10
2437.838628582247
 20
-1447.478825155631
 10
2440.648687175997
 20
-1446.398808065787
 10
2442.758794597872
 20
-1444.828800741569
 10
2445.468755535372
 20
-1442.79883247985
 10
2448.178716472872
 20
-1443.058842245475
 10
2451.318609050997
 20
-1442.968815390006
 10
2452.578618816622
 20
-1444.228825155631
 10
2453.868657879122
 20
-1445.748844686881
 10
2455.398687175997
 20
-1446.988834921256
 10
2455.598638347872
 20
-1447.148808065787
 10
2455.788823894747
 20
-1447.328800741569
 10
2455.968755535372
 20
-1447.50879341735
 10
2457.718755535372
 20
-1444.358830038444
 10
2458.868657879122
 20
-1440.878788534537
 10
2459.278814129122
 20
-1437.29883247985
 10
2459.768804363497
 20
-1433.108830038444
 10
2460.188726238497
 20
-1427.598820272819
 10
2464.288823894747
 20
-1426.628788534537
 10
2465.938726238497
 20
-1426.238834921256
 10
2467.638677410372
 20
-1426.828800741569
 10
2469.328618816622
 20
-1426.988834921256
 10
2475.798589519747
 20
-1427.618839804069
 10
2481.048589519747
 20
-1422.098820272819
 10
2485.168706707247
 20
-1417.068790975944
 10
2478.538823894747
 20
-1408.238834921256
 10
2476.998784832247
 20
-1395.838810507194
 10
2481.258794597872
 20
-1385.648808065787
 10
2482.378667644747
 20
-1382.968815390006
 10
2483.978765300997
 20
-1380.328800741569
 10
2486.498784832247
 20
-1378.868839804069
 10
2490.238775066622
 20
-1376.698795858756
 10
2495.038823894747
 20
-1377.638798300162
 10
2499.108648113497
 20
-1376.158817831412
 10
2505.398687175997
 20
-1373.868839804069
 10
2508.238775066622
 20
-1366.648808065787
 10
2509.638677410372
 20
-1360.098820272819
 10
2510.008794597872
 20
-1358.348820272819
 10
2510.348638347872
 20
-1356.54883247985
 10
2511.308599285372
 20
-1355.0288129486
 10
2512.078618816622
 20
-1353.808842245475
 10
2513.218755535372
 20
-1352.848820272819
 10
2514.378667644747
 20
-1351.978825155631
 10
2519.098638347872
 20
-1348.458805624381
 10
2524.628667644747
 20
-1346.018803182975
 10
2530.418706707247
 20
-1344.908817831412
 10
2530.608648113497
 20
-1343.388798300162
 10
2530.788823894747
 20
-1341.868839804069
 10
2530.978765300997
 20
-1340.348820272819
 10
2534.758794597872
 20
-1340.098820272819
 10
2538.358648113497
 20
-1337.888798300162
 10
2540.288823894747
 20
-1334.628849569694
 10
2541.708745769747
 20
-1337.928837362662
 10
2545.718755535372
 20
-1339.858830038444
 10
2549.188726238497
 20
-1338.918827597037
 10
2552.648687175997
 20
-1337.978825155631
 10
2555.128667644747
 20
-1334.268803182975
 10
2554.678716472872
 20
-1330.708805624381
 10
2561.018804363497
 20
-1333.268803182975
 10
2568.498784832247
 20
-1332.858830038444
 10
2574.508794597872
 20
-1329.608830038444
 10
2575.918706707247
 20
-1328.848820272819
 10
2577.298589519747
 20
-1327.888798300162
 10
2577.988775066622
 20
-1326.448795858756
 10
2578.638677410372
 20
-1325.098820272819
 10
2578.568609050997
 20
-1323.518803182975
 10
2578.498784832247
 20
-1322.018803182975
 10
2578.288823894747
 20
-1318.04883247985
 10
2578.088628582247
 20
-1314.088810507194
 10
2577.888677410372
 20
-1310.118839804069
 97
        0
 72
     1
 10
2577.888677410372
 20
-1310.118839804069
 11
2577.888677410372
 21
-1310.118839804069
 97
        0
 92
        1
 93
        2
 72
     4
 94
        3
 73
     0
 74
     0
 95
       20
 96
       16
 40
0.0
 40
0.0
 40
0.0
 40
0.0
 40
1.0
 40
1.0
 40
1.0
 40
2.0
 40
2.0
 40
2.0
 40
3.0
 40
3.0
 40
3.0
 40
4.0
 40
4.0
 40
4.0
 40
5.0
 40
5.0
 40
5.0
 40
5.0
 10
2359.538823894747
 20
-1266.75879341735
 10
2359.098638347872
 20
-1266.5288129486
 10
2358.668706707247
 20
-1266.228825155631
 10
2358.358648113497
 20
-1265.848820272819
 10
2358.208745769747
 20
-1265.678837362662
 10
2358.218755535372
 20
-1265.158817831412
 10
2358.368657879122
 20
-1265.018803182975
 10
2358.518804363497
 20
-1264.868839804069
 10
2359.028814129122
 20
-1264.858830038444
 10
2359.208745769747
 20
-1265.00879341735
 10
2359.348638347872
 20
-1265.128849569694
 10
2359.478765300997
 20
-1265.248844686881
 10
2359.538823894747
 20
-1265.25879341735
 10
2359.788823894747
 20
-1266.558842245475
 10
2359.588628582247
 20
-1266.788822714225
 10
2359.538823894747
 20
-1266.75879341735
 97
        0
 72
     1
 10
2359.538823894747
 20
-1266.75879341735
 11
2359.538823894747
 21
-1266.75879341735
 97
        0
 75
     2
 76
     1
 98
        0
  0
ENDSEC
  0
SECTION
  2
OBJECTS
  0
DICTIONARY
  5
C
330
0
100
AcDbDictionary
281
     1
  3
ACAD_GROUP
350
D
  3
ACAD_LAYOUT
350
1A
  3
ACAD_MATERIAL
350
3B
  3
ACAD_MLEADERSTYLE
350
45
  3
ACAD_MLINESTYLE
350
17
  3
ACAD_PLOTSETTINGS
350
19
  3
ACAD_PLOTSTYLENAME
350
E
  3
ACAD_TABLESTYLE
350
44
  3
ACAD_VISUALSTYLE
350
2A
  0
SUN
  5
3F
330
29
100
AcDbSun
 90
        1
290
     0
 63
     7
421
 16777215
 40
1.0
291
     1
 91
  2455826
 92
 54000000
292
     0
 70
     2
 71
   256
280
     1
  0
DICTIONARY
  5
D
102
{ACAD_REACTORS
330
C
102
}
330
C
100
AcDbDictionary
281
     1
  0
DICTIONARY
  5
1A
102
{ACAD_REACTORS
330
C
102
}
330
C
100
AcDbDictionary
281
     1
  3
Layout1
350
1E
  3
Layout2
350
26
  3
Model
350
22
  0
DICTIONARY
  5
3B
102
{ACAD_REACTORS
330
C
102
}
330
C
100
AcDbDictionary
281
     1
  3
ByBlock
350
3D
  3
ByLayer
350
3C
  3
Global
350
3E
  0
DICTIONARY
  5
45
102
{ACAD_REACTORS
330
C
102
}
330
C
100
AcDbDictionary
281
     1
  0
DICTIONARY
  5
17
102
{ACAD_REACTORS
330
C
102
}
330
C
100
AcDbDictionary
281
     1
  3
Standard
350
18
  0
DICTIONARY
  5
19
102
{ACAD_REACTORS
330
C
102
}
330
C
100
AcDbDictionary
281
     1
  0
ACDBDICTIONARYWDFLT
  5
E
102
{ACAD_REACTORS
330
C
102
}
330
C
100
AcDbDictionary
281
     1
  3
Normal
350
F
100
AcDbDictionaryWithDefault
340
F
  0
DICTIONARY
  5
44
102
{ACAD_REACTORS
330
C
102
}
330
C
100
AcDbDictionary
281
     1
  0
DICTIONARY
  5
2A
102
{ACAD_REACTORS
330
C
102
}
330
C
100
AcDbDictionary
281
     1
  3
2dWireframe
350
2F
  3
3D Hidden
350
31
  3
3dWireframe
350
30
  3
Basic
350
32
  3
Brighten
350
36
  3
ColorChange
350
3A
  3
Conceptual
350
34
  3
Dim
350
35
  3
Facepattern
350
39
  3
Flat
350
2B
  3
FlatWithEdges
350
2C
  3
Gouraud
350
2D
  3
GouraudWithEdges
350
2E
  3
Linepattern
350
38
  3
Realistic
350
33
  3
Thicken
350
37
  0
LAYOUT
  5
1E
102
{ACAD_REACTORS
330
1A
102
}
330
1A
100
AcDbPlotSettings
  1

  2
none_device
  4

  6

 40
0.0
 41
0.0
 42
0.0
 43
0.0
 44
0.0
 45
0.0
 46
0.0
 47
0.0
 48
0.0
 49
0.0
140
0.0
141
0.0
142
1.0
143
1.0
 70
   688
 72
     0
 73
     0
 74
     5
  7

 75
    16
 76
     0
 77
     2
 78
   300
147
1.0
148
0.0
149
0.0
100
AcDbLayout
  1
Layout1
 70
     1
 71
     1
 10
0.0
 20
0.0
 11
12.0
 21
9.0
 12
0.0
 22
0.0
 32
0.0
 14
1.000000000000000E+20
 24
1.000000000000000E+20
 34
1.000000000000000E+20
 15
-1.000000000000000E+20
 25
-1.000000000000000E+20
 35
-1.000000000000000E+20
146
0.0
 13
0.0
 23
0.0
 33
0.0
 16
1.0
 26
0.0
 36
0.0
 17
0.0
 27
1.0
 37
0.0
 76
     0
330
1B
  0
LAYOUT
  5
26
102
{ACAD_REACTORS
330
1A
102
}
330
1A
100
AcDbPlotSettings
  1

  2
none_device
  4

  6

 40
0.0
 41
0.0
 42
0.0
 43
0.0
 44
0.0
 45
0.0
 46
0.0
 47
0.0
 48
0.0
 49
0.0
140
0.0
141
0.0
142
1.0
143
1.0
 70
   688
 72
     0
 73
     0
 74
     5
  7

 75
    16
 76
     0
 77
     2
 78
   300
147
1.0
148
0.0
149
0.0
100
AcDbLayout
  1
Layout2
 70
     1
 71
     2
 10
0.0
 20
0.0
 11
0.0
 21
0.0
 12
0.0
 22
0.0
 32
0.0
 14
0.0
 24
0.0
 34
0.0
 15
0.0
 25
0.0
 35
0.0
146
0.0
 13
0.0
 23
0.0
 33
0.0
 16
1.0
 26
0.0
 36
0.0
 17
0.0
 27
1.0
 37
0.0
 76
     0
330
23
  0
LAYOUT
  5
22
102
{ACAD_REACTORS
330
1A
102
}
330
1A
100
AcDbPlotSettings
  1

  2
none_device
  4

  6

 40
0.0
 41
0.0
 42
0.0
 43
0.0
 44
0.0
 45
0.0
 46
0.0
 47
0.0
 48
0.0
 49
0.0
140
0.0
141
0.0
142
1.0
143
1.0
 70
  1712
 72
     0
 73
     0
 74
     0
  7

 75
     0
 76
     0
 77
     2
 78
   300
147
1.0
148
0.0
149
0.0
100
AcDbLayout
  1
Model
 70
     1
 71
     0
 10
0.0
 20
0.0
 11
12.0
 21
9.0
 12
0.0
 22
0.0
 32
0.0
 14
1.000000000000000E+20
 24
1.000000000000000E+20
 34
1.000000000000000E+20
 15
-1.000000000000000E+20
 25
-1.000000000000000E+20
 35
-1.000000000000000E+20
146
0.0
 13
0.0
 23
0.0
 33
0.0
 16
1.0
 26
0.0
 36
0.0
 17
0.0
 27
1.0
 37
0.0
 76
     0
330
1F
331
29
  0
MATERIAL
  5
3D
102
{ACAD_REACTORS
330
3B
102
}
330
3B
100
AcDbMaterial
  1
ByBlock
 72
     1
 94
      127
  0
MATERIAL
  5
3C
102
{ACAD_REACTORS
330
3B
102
}
330
3B
100
AcDbMaterial
  1
ByLayer
 72
     1
 94
      127
  0
MATERIAL
  5
3E
102
{ACAD_REACTORS
330
3B
102
}
330
3B
100
AcDbMaterial
  1
Global
 72
     1
 94
      127
  0
MLINESTYLE
  5
18
102
{ACAD_REACTORS
330
17
102
}
330
17
100
AcDbMlineStyle
  2
Standard
 70
     0
  3

 62
   256
 51
90.0
 52
90.0
 71
     2
 49
0.5
 62
   256
  6
BYLAYER
 49
-0.5
 62
   256
  6
BYLAYER
  0
ACDBPLACEHOLDER
  5
F
102
{ACAD_REACTORS
330
E
102
}
330
E
  0
VISUALSTYLE
  5
2F
102
{ACAD_REACTORS
330
2A
102
}
330
2A
100
AcDbVisualStyle
  2
2dWireframe
 70
     4
177
     2
291
     0
 71
     0
176
     1
 72
     2
176
     1
 73
     0
176
     1
 90
        0
176
     1
 40
-0.6
176
     1
 41
-30.0
176
     1
 62
     5
 63
     7
421
 16777215
176
     1
 74
     1
176
     1
 91
        4
176
     1
 64
     7
176
     1
 65
   257
176
     1
 75
     1
176
     1
175
     1
176
     1
 42
1.0
176
     1
 92
        0
176
     1
 66
   257
176
     1
 43
1.0
176
     1
 76
     1
176
     1
 77
     6
176
     1
 78
     2
176
     1
 67
     7
176
     1
 79
     5
176
     1
170
     0
176
     1
171
     0
176
     1
290
     0
176
     1
 93
        1
176
     1
 44
0.0
176
     1
173
     0
176
     1
  0
VISUALSTYLE
  5
31
102
{ACAD_REACTORS
330
2A
102
}
330
2A
100
AcDbVisualStyle
  2
3D Hidden
 70
     6
177
     2
291
     0
 71
     1
176
     1
 72
     2
176
     1
 73
     2
176
     1
 90
        0
176
     1
 40
-0.6
176
     1
 41
-30.0
176
     1
 62
     5
 63
     7
421
 16777215
176
     1
 74
     2
176
     1
 91
        2
176
     1
 64
     7
176
     1
 65
   257
176
     1
 75
     2
176
     1
175
     1
176
     1
 42
40.0
176
     1
 92
        0
176
     1
 66
   257
176
     1
 43
1.0
176
     1
 76
     1
176
     1
 77
     6
176
     1
 78
     2
176
     1
 67
     7
176
     1
 79
     3
176
     1
170
     0
176
     1
171
     0
176
     1
290
     0
176
     1
 93
        1
176
     1
 44
0.0
176
     1
173
     0
176
     1
  0
VISUALSTYLE
  5
30
102
{ACAD_REACTORS
330
2A
102
}
330
2A
100
AcDbVisualStyle
  2
3dWireframe
 70
     5
177
     2
291
     0
 71
     0
176
     1
 72
     2
176
     1
 73
     0
176
     1
 90
        0
176
     1
 40
-0.6
176
     1
 41
-30.0
176
     1
 62
     5
 63
     7
421
 16777215
176
     1
 74
     1
176
     1
 91
        4
176
     1
 64
     7
176
     1
 65
   257
176
     1
 75
     1
176
     1
175
     1
176
     1
 42
1.0
176
     1
 92
        0
176
     1
 66
   257
176
     1
 43
1.0
176
     1
 76
     1
176
     1
 77
     6
176
     1
 78
     2
176
     1
 67
     7
176
     1
 79
     5
176
     1
170
     0
176
     1
171
     0
176
     1
290
     0
176
     1
 93
        1
176
     1
 44
0.0
176
     1
173
     0
176
     1
  0
VISUALSTYLE
  5
32
102
{ACAD_REACTORS
330
2A
102
}
330
2A
100
AcDbVisualStyle
  2
Basic
 70
     7
177
     2
291
     1
 71
     1
176
     1
 72
     0
176
     1
 73
     1
176
     1
 90
        0
176
     1
 40
-0.6
176
     1
 41
-30.0
176
     1
 62
     5
 63
     7
421
 16777215
176
     1
 74
     0
176
     1
 91
        4
176
     1
 64
     7
176
     1
 65
   257
176
     1
 75
     1
176
     1
175
     1
176
     1
 42
1.0
176
     1
 92
        8
176
     1
 66
     7
176
     1
 43
1.0
176
     1
 76
     1
176
     1
 77
     6
176
     1
 78
     2
176
     1
 67
     7
176
     1
 79
     5
176
     1
170
     0
176
     1
171
     0
176
     1
290
     0
176
     1
 93
        1
176
     1
 44
0.0
176
     1
173
     0
176
     1
  0
VISUALSTYLE
  5
36
102
{ACAD_REACTORS
330
2A
102
}
330
2A
100
AcDbVisualStyle
  2
Brighten
 70
    12
177
     2
291
     1
 71
     2
176
     1
 72
     2
176
     1
 73
     0
176
     1
 90
        0
176
     1
 40
-0.6
176
     1
 41
-30.0
176
     1
 62
     5
 63
     7
421
 16777215
176
     1
 74
     1
176
     1
 91
        4
176
     1
 64
     7
176
     1
 65
   257
176
     1
 75
     1
176
     1
175
     1
176
     1
 42
1.0
176
     1
 92
        8
176
     1
 66
     7
176
     1
 43
1.0
176
     1
 76
     1
176
     1
 77
     6
176
     1
 78
     2
176
     1
 67
     7
176
     1
 79
     5
176
     1
170
     0
176
     1
171
     0
176
     1
290
     0
176
     1
 93
        1
176
     1
 44
50.0
176
     1
173
     0
176
     1
  0
VISUALSTYLE
  5
3A
102
{ACAD_REACTORS
330
2A
102
}
330
2A
100
AcDbVisualStyle
  2
ColorChange
 70
    16
177
     2
291
     1
 71
     2
176
     1
 72
     2
176
     1
 73
     3
176
     1
 90
        0
176
     1
 40
-0.6
176
     1
 41
-30.0
176
     1
 62
     5
 63
     8
421
  8421504
176
     1
 74
     1
176
     1
 91
        4
176
     1
 64
     7
176
     1
 65
   257
176
     1
 75
     1
176
     1
175
     1
176
     1
 42
1.0
176
     1
 92
        8
176
     1
 66
     8
424
  8421504
176
     1
 43
1.0
176
     1
 76
     1
176
     1
 77
     6
176
     1
 78
     2
176
     1
 67
     7
176
     1
 79
     5
176
     1
170
     0
176
     1
171
     0
176
     1
290
     0
176
     1
 93
        1
176
     1
 44
0.0
176
     1
173
     0
176
     1
  0
VISUALSTYLE
  5
34
102
{ACAD_REACTORS
330
2A
102
}
330
2A
100
AcDbVisualStyle
  2
Conceptual
 70
     9
177
     2
291
     0
 71
     3
176
     1
 72
     2
176
     1
 73
     0
176
     1
 90
        0
176
     1
 40
-0.6
176
     1
 41
-30.0
176
     1
 62
     5
 63
     7
421
 16777215
176
     1
 74
     2
176
     1
 91
        2
176
     1
 64
     7
176
     1
 65
   257
176
     1
 75
     1
176
     1
175
     1
176
     1
 42
40.0
176
     1
 92
        8
176
     1
 66
     7
176
     1
 43
1.0
176
     1
 76
     1
176
     1
 77
     6
176
     1
 78
     2
176
     1
 67
     7
176
     1
 79
     3
176
     1
170
     0
176
     1
171
     0
176
     1
290
     0
176
     1
 93
        1
176
     1
 44
0.0
176
     1
173
     0
176
     1
  0
VISUALSTYLE
  5
35
102
{ACAD_REACTORS
330
2A
102
}
330
2A
100
AcDbVisualStyle
  2
Dim
 70
    11
177
     2
291
     1
 71
     2
176
     1
 72
     2
176
     1
 73
     0
176
     1
 90
        0
176
     1
 40
-0.6
176
     1
 41
-30.0
176
     1
 62
     5
 63
     7
421
 16777215
176
     1
 74
     1
176
     1
 91
        4
176
     1
 64
     7
176
     1
 65
   257
176
     1
 75
     1
176
     1
175
     1
176
     1
 42
1.0
176
     1
 92
        8
176
     1
 66
     7
176
     1
 43
1.0
176
     1
 76
     1
176
     1
 77
     6
176
     1
 78
     2
176
     1
 67
     7
176
     1
 79
     5
176
     1
170
     0
176
     1
171
     0
176
     1
290
     0
176
     1
 93
        1
176
     1
 44
-50.0
176
     1
173
     0
176
     1
  0
VISUALSTYLE
  5
39
102
{ACAD_REACTORS
330
2A
102
}
330
2A
100
AcDbVisualStyle
  2
Facepattern
 70
    15
177
     2
291
     1
 71
     2
176
     1
 72
     2
176
     1
 73
     0
176
     1
 90
        0
176
     1
 40
-0.6
176
     1
 41
-30.0
176
     1
 62
     5
 63
     7
421
 16777215
176
     1
 74
     1
176
     1
 91
        4
176
     1
 64
     7
176
     1
 65
   257
176
     1
 75
     1
176
     1
175
     1
176
     1
 42
1.0
176
     1
 92
        8
176
     1
 66
     7
176
     1
 43
1.0
176
     1
 76
     1
176
     1
 77
     6
176
     1
 78
     2
176
     1
 67
     7
176
     1
 79
     5
176
     1
170
     0
176
     1
171
     0
176
     1
290
     0
176
     1
 93
        1
176
     1
 44
0.0
176
     1
173
     0
176
     1
  0
VISUALSTYLE
  5
2B
102
{ACAD_REACTORS
330
2A
102
}
330
2A
100
AcDbVisualStyle
  2
Flat
 70
     0
177
     2
291
     1
 71
     2
176
     1
 72
     1
176
     1
 73
     1
176
     1
 90
        2
176
     1
 40
-0.6
176
     1
 41
30.0
176
     1
 62
     5
 63
     7
421
 16777215
176
     1
 74
     0
176
     1
 91
        4
176
     1
 64
     7
176
     1
 65
   257
176
     1
 75
     1
176
     1
175
     1
176
     1
 42
1.0
176
     1
 92
        8
176
     1
 66
     7
176
     1
 43
1.0
176
     1
 76
     1
176
     1
 77
     6
176
     1
 78
     2
176
     1
 67
     7
176
     1
 79
     5
176
     1
170
     0
176
     1
171
     0
176
     1
290
     0
176
     1
 93
       13
176
     1
 44
0.0
176
     1
173
     0
176
     1
  0
VISUALSTYLE
  5
2C
102
{ACAD_REACTORS
330
2A
102
}
330
2A
100
AcDbVisualStyle
  2
FlatWithEdges
 70
     1
177
     2
291
     1
 71
     2
176
     1
 72
     1
176
     1
 73
     1
176
     1
 90
        2
176
     1
 40
-0.6
176
     1
 41
30.0
176
     1
 62
     5
 63
     7
421
 16777215
176
     1
 74
     1
176
     1
 91
        4
176
     1
 64
     7
176
     1
 65
   257
176
     1
 75
     1
176
     1
175
     1
176
     1
 42
1.0
176
     1
 92
        0
176
     1
 66
   257
176
     1
 43
1.0
176
     1
 76
     1
176
     1
 77
     6
176
     1
 78
     2
176
     1
 67
     7
176
     1
 79
     5
176
     1
170
     0
176
     1
171
     0
176
     1
290
     0
176
     1
 93
       13
176
     1
 44
0.0
176
     1
173
     0
176
     1
  0
VISUALSTYLE
  5
2D
102
{ACAD_REACTORS
330
2A
102
}
330
2A
100
AcDbVisualStyle
  2
Gouraud
 70
     2
177
     2
291
     1
 71
     2
176
     1
 72
     2
176
     1
 73
     1
176
     1
 90
        2
176
     1
 40
-0.6
176
     1
 41
30.0
176
     1
 62
     5
 63
     7
421
 16777215
176
     1
 74
     0
176
     1
 91
        4
176
     1
 64
     7
176
     1
 65
   257
176
     1
 75
     1
176
     1
175
     1
176
     1
 42
1.0
176
     1
 92
        0
176
     1
 66
     7
176
     1
 43
1.0
176
     1
 76
     1
176
     1
 77
     6
176
     1
 78
     2
176
     1
 67
     7
176
     1
 79
     5
176
     1
170
     0
176
     1
171
     0
176
     1
290
     0
176
     1
 93
       13
176
     1
 44
0.0
176
     1
173
     0
176
     1
  0
VISUALSTYLE
  5
2E
102
{ACAD_REACTORS
330
2A
102
}
330
2A
100
AcDbVisualStyle
  2
GouraudWithEdges
 70
     3
177
     2
291
     1
 71
     2
176
     1
 72
     2
176
     1
 73
     1
176
     1
 90
        2
176
     1
 40
-0.6
176
     1
 41
30.0
176
     1
 62
     5
 63
     7
421
 16777215
176
     1
 74
     1
176
     1
 91
        4
176
     1
 64
     7
176
     1
 65
   257
176
     1
 75
     1
176
     1
175
     1
176
     1
 42
1.0
176
     1
 92
        0
176
     1
 66
   257
176
     1
 43
1.0
176
     1
 76
     1
176
     1
 77
     6
176
     1
 78
     2
176
     1
 67
     7
176
     1
 79
     5
176
     1
170
     0
176
     1
171
     0
176
     1
290
     0
176
     1
 93
       13
176
     1
 44
0.0
176
     1
173
     0
176
     1
  0
VISUALSTYLE
  5
38
102
{ACAD_REACTORS
330
2A
102
}
330
2A
100
AcDbVisualStyle
  2
Linepattern
 70
    14
177
     2
291
     1
 71
     2
176
     1
 72
     2
176
     1
 73
     0
176
     1
 90
        0
176
     1
 40
-0.6
176
     1
 41
-30.0
176
     1
 62
     5
 63
     7
421
 16777215
176
     1
 74
     1
176
     1
 91
        4
176
     1
 64
     7
176
     1
 65
   257
176
     1
 75
     7
176
     1
175
     7
176
     1
 42
1.0
176
     1
 92
        8
176
     1
 66
     7
176
     1
 43
1.0
176
     1
 76
     1
176
     1
 77
     6
176
     1
 78
     2
176
     1
 67
     7
176
     1
 79
     5
176
     1
170
     0
176
     1
171
     0
176
     1
290
     0
176
     1
 93
        1
176
     1
 44
0.0
176
     1
173
     0
176
     1
  0
VISUALSTYLE
  5
33
102
{ACAD_REACTORS
330
2A
102
}
330
2A
100
AcDbVisualStyle
  2
Realistic
 70
     8
177
     2
291
     0
 71
     2
176
     1
 72
     2
176
     1
 73
     0
176
     1
 90
        0
176
     1
 40
-0.6
176
     1
 41
-30.0
176
     1
 62
     5
 63
     7
421
 16777215
176
     1
 74
     1
176
     1
 91
        0
176
     1
 64
     7
176
     1
 65
   257
176
     1
 75
     1
176
     1
175
     1
176
     1
 42
1.0
176
     1
 92
        8
176
     1
 66
     8
424
  7895160
176
     1
 43
1.0
176
     1
 76
     1
176
     1
 77
     6
176
     1
 78
     2
176
     1
 67
     7
176
     1
 79
     5
176
     1
170
     0
176
     1
171
     0
176
     1
290
     0
176
     1
 93
       13
176
     1
 44
0.0
176
     1
173
     0
176
     1
  0
VISUALSTYLE
  5
37
102
{ACAD_REACTORS
330
2A
102
}
330
2A
100
AcDbVisualStyle
  2
Thicken
 70
    13
177
     2
291
     1
 71
     2
176
     1
 72
     2
176
     1
 73
     0
176
     1
 90
        0
176
     1
 40
-0.6
176
     1
 41
-30.0
176
     1
 62
     5
 63
     7
421
 16777215
176
     1
 74
     1
176
     1
 91
        4
176
     1
 64
     7
176
     1
 65
   257
176
     1
 75
     1
176
     1
175
     1
176
     1
 42
1.0
176
     1
 92
       12
176
     1
 66
     7
176
     1
 43
1.0
176
     1
 76
     1
176
     1
 77
     6
176
     1
 78
     2
176
     1
 67
     7
176
     1
 79
     5
176
     1
170
     0
176
     1
171
     0
176
     1
290
     0
176
     1
 93
        1
176
     1
 44
0.0
176
     1
173
     0
176
     1
  0
ENDSEC
  0
EOF
